<svg width="86px" height="77px" viewBox="0 0 86 77" version="1.1" xmlns="http://www.w3.org/2000/svg" xmlns:xlink="http://www.w3.org/1999/xlink">
    <g id="Pages" stroke="none" stroke-width="1" fill="none" fill-rule="evenodd">
        <g id="Las-Vegas-Home" transform="translate(-657.000000, -10.000000)" fill="#CFAD5F">
            <g id="Logo" transform="translate(657.000000, 10.000000)">
                <g id="BRAND---Golden-Nugget-(unofficial)" transform="translate(0.000000, 0.000000)">
                    <g id="Components">
                        <path d="M71.7261219,17.3266006 C72.003497,17.3697246 72.2218715,17.3886386 72.5550095,17.3886386 C72.773384,16.917301 72.9442701,16.058604 72.0229241,16.2674149 C71.5771811,16.3665244 71.6811518,16.9721517 71.7261219,17.3266006" id="Shape"></path>
                        <path d="M12.714647,17.9492505 C13.3010562,17.7835636 13.1208163,16.4595814 12.240483,16.7656105 C11.6814155,16.9581553 11.9084243,18.1735709 12.714647,17.9492505" id="Shape"></path>
                        <path d="M71.6671212,18.6343167 C72.2125177,18.4186968 71.9520513,17.2952033 71.1325175,17.513093 C70.5090529,17.6772668 70.7378605,18.9978444 71.6671212,18.6343167" id="Shape"></path>
                        <path d="M13.6036146,19.1956852 C14.1662796,19.0413467 14.0176986,17.9348759 13.3650935,17.9500071 C12.512102,17.9651383 12.7067323,19.4362716 13.6036146,19.1956852" id="Shape"></path>
                        <path d="M71.8441232,20.3169089 C72.4812587,20.1625704 72.2600061,18.9539638 71.6066815,19.0712308 C70.9353688,19.1896327 70.9886134,20.5215587 71.8441232,20.3169089" id="Shape"></path>
                        <path d="M13.188811,20.8154828 C13.8993375,20.8052692 13.7791776,19.4173576 12.9510095,19.5698047 C12.3138741,19.6832889 12.5714624,20.8215353 13.188811,20.8154828" id="Shape"></path>
                        <path d="M5.48814271,72.7000741 C5.42338587,73.0344742 5.72666376,73.4562571 6.37531151,73.4562571 C6.45553804,73.2970009 6.57569797,72.9701665 6.57174061,72.701209 L5.48814271,72.7000741 L5.48814271,72.7000741 Z M10.2423745,72.7000741 C9.94557229,73.2447982 9.63545895,74.0089251 10.3445464,74.2037396 C10.822308,74.3342464 11.1313421,74.0773939 11.5299565,74.0176255 C11.5468652,74.2710735 11.6547933,74.7454374 11.5299565,75.0140167 C11.1025613,75.9056241 8.85154135,75.8897363 8.15252717,75.2629253 C7.97048848,75.1013995 7.65066162,74.5517578 7.56036179,74.3281939 C7.37328646,73.8719875 7.33802995,73.2118878 7.12253356,72.7000741 L10.2423745,72.7000741 L10.2423745,72.7000741 Z M14.2475854,72.7000741 C14.2274389,73.5107295 14.3551538,73.9911459 14.5519426,74.641032 C13.1193773,74.1655333 12.4840407,73.4645793 12.3494903,72.7023438 L14.2475854,72.7000741 L14.2475854,72.7000741 Z M50.4862361,72.7000741 C49.2058493,74.1727206 46.7825042,73.4865195 44.8851287,73.332181 C44.5210513,74.0361613 43.9788926,74.4140636 43.6414374,74.8275243 C43.229512,75.3276113 43.3478731,76.164368 42.6945485,76.6958523 L42.539132,76.571398 L42.3977462,76.2593165 C41.88185,74.3440817 41.2932823,74.6236311 40.5608104,73.2690082 C38.8677786,73.911707 36.6340272,73.7872526 35.5245265,73.2690082 C35.3986104,73.2096181 35.1287903,72.9179638 34.9294831,72.6989393 L50.4862361,72.7000741 L50.4862361,72.7000741 Z M72.903977,72.7000741 C72.5416984,73.4653358 71.71389,73.9415911 70.8371543,74.0785287 C71.0195527,73.7395893 71.2512383,73.2561466 71.2749825,72.6993176 L72.903977,72.7000741 L72.903977,72.7000741 Z M76.2299605,72.7000741 C76.1968626,72.7515203 76.1749172,72.7965357 76.169161,72.8339855 C76.0997273,73.3552562 76.9023524,73.1596851 76.7555703,72.6993176 L78.1338118,72.7004524 C77.7082154,73.7645558 77.4635784,75.1040475 75.9914395,75.2629253 C74.7955964,75.3926756 73.6252963,74.6890736 73.7987007,73.4566354 C74.2681878,73.5027856 74.7880414,73.8742572 75.220833,73.4566354 C75.5327452,73.1559023 75.5500136,72.9160724 75.4561162,72.6993176 L76.2299605,72.7000741 L76.2299605,72.7000741 Z M78.8731191,72.7000741 C78.9702544,72.868409 79.1353844,72.9822715 79.3677895,72.9580615 C79.5339987,72.9410389 79.6570367,72.8392814 79.7351047,72.6981827 L78.8731191,72.7000741 L78.8731191,72.7000741 Z" id="Shape"></path>
                        <path d="M6.57174061,72.7000741 C6.568143,72.39518 6.40373257,72.1614025 5.84106753,72.3350333 C5.63600418,72.3970714 5.51872234,72.5377917 5.48742319,72.7000741 L6.57174061,72.7000741 L6.57174061,72.7000741 Z M7.12109452,72.7000741 C7.04086798,72.5109338 6.93617775,72.3414641 6.78939556,72.2117139 C6.74154745,72.1666985 6.60807639,72.2340324 6.55267331,72.2117139 C6.1979497,72.0551057 6.07383241,71.5659888 5.90042797,71.2758476 C5.88423876,71.2501245 5.67341925,71.2349933 5.66370572,71.2138096 C5.47950847,70.8748701 5.14673023,69.8667523 5.07154034,69.3454816 C5.00786277,68.9252118 5.13737646,68.6513367 5.01146037,68.4107502 C4.93914856,68.2711647 4.60888865,68.1728117 4.5966568,68.161085 C4.05845545,67.6061473 3.06947451,66.5416657 2.22727575,67.7869655 C1.8574422,68.330933 1.84089323,68.9021367 1.9308333,69.6564283 C1.95565675,69.8606998 1.81247217,70.1406275 1.81247217,70.1538673 C0.890046875,69.8996627 0.486395867,69.319002 0.332058717,68.2859176 C0.221252558,67.5739935 0.0514457167,66.7326974 0.332058717,65.9799189 C0.36443714,65.8849705 0.600080108,65.7404673 0.627781648,65.6061777 C0.840399959,64.546992 -0.011152568,62.7857174 1.16094635,62.2421282 C2.17762883,61.7696557 2.94535722,62.9744794 3.29360515,63.4889411 C2.75864165,63.8430117 2.55141974,65.0243821 3.53104692,65.0463224 C3.87461796,65.05124 4.1005474,64.7924961 4.30093387,64.671068 C5.84142729,63.7374714 4.77689669,62.4607744 5.48562439,60.9344121 C9.58041563,64.9328382 17.285401,63.9901629 24.1489072,63.4253899 C27.2968095,63.1647546 30.5720668,63.7333104 33.2141462,64.1112127 C33.4181302,63.104608 34.2365848,61.5903506 35.8220483,61.9311815 C36.0893501,61.9867887 36.5545202,62.2810911 36.7110159,62.3669608 C36.2577179,62.663911 35.2935605,64.130505 35.9994101,64.9835278 C36.2825414,65.3254935 37.504647,65.8441162 37.9539875,65.9163678 C38.5350004,66.0128294 39.2404902,66.0328782 39.6718428,66.1051298 C41.4907906,66.4028367 43.6198518,66.1149651 45.3607317,66.041957 C45.2779869,66.0491443 46.1313382,65.9795407 46.1313382,65.9795407 C47.7135638,65.8471424 49.122385,65.3039315 49.447968,64.3601213 C49.7102332,63.5986425 49.405876,62.9952849 48.738161,62.3037879 C48.8209059,62.2629336 48.579147,62.1766856 48.7259292,62.1252394 C48.7259292,62.1252394 48.877748,62.0741716 48.9158826,62.0548792 C50.6718724,61.0539487 52.0109001,62.8643998 52.2339514,63.7987529 C53.4074894,63.7488199 54.490008,63.3493555 55.5505812,63.1753464 C56.4082497,63.0334912 57.2141126,63.2574333 58.0991229,63.1129301 C58.6974042,63.0145772 59.8601493,62.8492685 60.6462255,62.9888541 C61.2826414,63.1008252 63.1792975,62.9877193 64.3211765,63.1753464 C68.8156614,63.9122371 74.7189675,63.642523 77.7693747,61.8683869 C78.4619132,61.4621135 79.0526395,60.7562419 79.6063105,60.1865513 C79.7178362,60.4271377 79.884765,60.4642092 79.9617537,60.6839903 C80.4837658,62.212244 79.3620333,63.290722 80.7320004,64.1108344 C82.2599022,65.0236255 83.1449124,63.3398985 81.9163311,62.9888541 C82.1005284,62.3688522 83.1409551,61.1772682 84.1090699,61.6187217 C84.1306555,61.6266656 84.1482838,61.8502294 84.1684304,61.8683869 C84.6872046,62.3355635 84.884713,63.0970424 84.7605957,64.235667 C84.7483639,64.3510426 84.578557,64.7175965 84.5832339,64.7959006 C84.6015817,65.0667495 84.9922813,65.4166591 85.0559589,65.668594 C85.3376512,66.7879263 85.0415685,68.1039646 84.4648728,68.9074327 C84.3216882,69.1045169 84.3180906,69.2800391 84.1087101,69.4056282 C83.8820612,69.5395396 83.7158519,69.4918762 83.3981836,69.5308391 C83.5010751,68.5567665 83.5309352,67.8179845 83.1013814,67.1639373 C82.8182501,66.7334539 82.2879635,66.4486086 81.6792491,66.7266449 C81.2169572,66.9350775 80.9795154,67.3020097 80.6729997,67.536922 C80.699622,67.510064 80.5427665,67.6193871 80.4949184,67.7245492 C80.5406079,67.6144695 80.3366239,67.8743483 80.3175566,67.9114198 C80.3175566,67.9114198 80.3175566,68.5923249 80.2574766,68.9702272 C80.1801281,69.4548047 79.5563039,70.9633878 79.3102278,71.213053 C78.9144916,71.60533 78.6605008,71.6715291 78.3618998,72.2109573 C78.2773561,72.3622695 78.2039651,72.5268216 78.1338118,72.7004524 L76.7555703,72.6993176 C76.7192345,72.5899945 76.6318127,72.4670533 76.4656035,72.3342768 C76.4084016,72.4534352 76.2979552,72.5892379 76.229241,72.6993176 L75.4557565,72.6993176 C75.327322,72.3997193 74.9862693,72.1455147 74.9243906,71.8360812 C74.8182613,71.3027055 75.3899203,71.2940051 75.2219123,70.6516846 C75.0028183,69.8240066 73.6231377,69.2524246 72.9108124,68.9078109 C72.2117982,68.5688715 71.4998327,68.3279067 70.6594327,68.1603284 C70.6594327,68.1603284 70.3550755,68.1043429 70.2439096,68.0982904 C70.9202589,68.7489331 71.8718248,69.4097893 72.4359289,69.9662401 C72.4866551,70.0154166 72.3985138,70.2128791 72.4359289,70.2783216 L72.851452,70.7144792 C73.1856692,71.502816 73.1558091,72.1708595 72.9046965,72.6989393 L71.2746228,72.6989393 C71.281818,72.5608669 71.2746228,72.4174985 71.2519579,72.2718605 C71.2519579,72.2718605 71.0087599,71.815654 71.0735168,71.586416 C71.1080538,71.4634748 71.4742897,71.1003254 71.5476808,70.9013498 C69.8100388,71.5603146 70.5403521,70.8801661 69.592024,70.1527324 C69.4128634,70.0150383 69.2520506,70.0944772 69.0592191,69.9658618 C69.0365542,69.9511089 69.021804,69.7283016 69.0002184,69.7173315 C67.3629495,68.9070544 65.0331421,69.5660192 63.549131,69.7173315 C61.0462789,69.9704012 58.8391497,70.7500375 56.2017473,71.2747128 C55.4674766,71.4180811 54.1601078,71.7551291 53.3582022,71.5236214 C52.5476624,71.2879526 51.9238381,70.7080484 51.2845441,70.2779433 C50.6456099,70.820776 49.9980414,71.0840593 49.1518853,71.4615834 C49.3051432,71.6038169 49.2529779,71.7782043 49.3288873,71.8353246 C49.6062625,72.0358134 50.4916325,72.2525682 50.7510196,72.3335202 C50.6689943,72.4678098 50.5804933,72.5884814 50.4862361,72.698561 L34.9291233,72.698561 C34.8157988,72.574485 34.7251392,72.4749972 34.6952791,72.457218 C35.4881908,72.3978279 35.8763721,72.1931781 36.2947732,71.5232431 C35.775999,71.373444 35.0654724,71.1256702 34.6952791,70.9009715 C34.3948793,70.7175054 34.2898293,70.3119886 34.0437533,70.2775651 C33.786165,70.2412501 32.7730801,71.3715526 32.4431799,71.5232431 C31.9823271,71.7328106 30.4716937,71.864074 29.5989154,71.7108703 C27.9220728,71.4146766 25.7224986,70.6584936 23.9711857,70.3396031 C23.5524247,70.261299 23.5229244,70.2590293 23.1020049,70.1689985 L22.4896929,70.0286564 C21.6025241,69.8062274 19.8083997,69.6004427 18.8165407,69.6549152 C17.0756608,69.7487287 16.1284121,70.156137 15.379751,71.2743345 C15.055607,71.7547509 14.3965262,71.5391309 13.9576187,71.3995454 C13.9576187,71.3995454 13.8201903,71.5262694 13.898618,71.5860377 C14.1234682,71.758912 14.2763663,72.064941 14.2533416,72.5200126 C14.2515428,72.5801592 14.2493842,72.6403058 14.2475854,72.6974262 L12.3494903,72.698561 C12.1433477,71.519082 13.1402434,70.1932085 14.2533416,69.3439685 C14.461283,69.1835775 14.9275323,68.6732769 15.2606703,68.596486 C15.372196,68.5677367 15.0516496,68.4542525 14.9649474,68.4712751 C14.3486781,68.5787068 13.3834413,68.9286164 12.7729281,69.2187576 C12.1034143,69.5346219 10.960456,70.060432 10.5208289,70.650928 C10.1499161,71.1464756 10.1661053,71.7150314 10.5208289,72.2102007 C10.4722613,72.3055274 10.3578575,72.4852107 10.2405757,72.6996959 L7.12109452,72.7000741 L7.12109452,72.7000741 Z M79.7365438,72.7000741 C79.964272,72.2900179 79.8030994,71.5588015 79.131427,71.7127617 C78.7587154,71.7956052 78.673812,72.3592433 78.8720399,72.7000741 L79.7365438,72.7000741 L79.7365438,72.7000741 Z M56.3208279,64.2368019 C54.9274765,64.4599874 53.7215601,64.8613432 53.0031188,65.7941832 C52.4901007,66.455796 52.3821726,67.6526758 52.6476757,68.2862959 C52.8915932,68.8711177 53.2056639,69.6564283 54.2471698,69.9669967 C55.2598949,70.2699994 56.4532197,69.8410292 57.2097955,69.7184663 C59.1345129,69.4014671 60.5937005,68.8616607 62.2457196,68.4727882 C63.924361,68.0755936 65.7299977,68.0385221 67.2820034,67.4756405 C65.9454941,67.4756405 63.9970325,67.2581292 62.6605232,67.039483 C61.0959258,66.7837653 59.2064649,66.981606 57.6242393,67.039483 C57.2964977,67.0515879 57.1446789,67.2044133 56.9122738,67.1650721 C56.7446255,67.1348097 56.7723271,66.8991408 56.7341925,66.6025688 C57.2529668,66.3086448 58.3110217,66.4168331 59.1053723,66.4168331 C61.2840804,66.4168331 64.3078654,66.7580422 66.3937554,66.4168331 C66.9175663,66.3302068 67.9687858,66.1857036 68.4674135,66.1062647 C68.9444556,66.0260692 69.9381134,66.1100475 68.9998587,65.9175026 C68.748746,65.8652999 68.3044421,65.6371967 67.9925299,65.6069343 C66.9949147,65.5116075 66.170704,65.3387333 65.1479056,65.1715333 C63.7977253,64.9491043 62.1417489,64.6491277 60.7642269,64.424429 C59.9378575,64.2871132 59.1834403,64.4993286 58.3347658,64.3612562 C57.8775106,64.2848435 56.9655183,64.1312616 56.3208279,64.2368019 L56.3208279,64.2368019 Z M27.4083351,64.5473702 C25.7401268,64.8212454 24.0899065,64.7648816 22.3720513,65.0467007 C20.6351288,65.3304111 18.6971003,65.8702176 17.0389653,66.2299624 C16.773822,66.285948 16.2759138,66.4017018 16.1499977,66.4164548 C19.7476002,67.4064152 24.7410726,66.2666557 28.5926659,66.7274014 C28.6372762,66.8760657 28.6372762,66.9619354 28.711027,67.1646938 C27.1266429,67.6167392 24.543924,67.1847427 22.7857756,67.4752622 C21.9817114,67.605769 21.2643495,67.4060369 20.4746757,67.5373003 C19.755515,67.6549455 18.9374201,67.8493818 18.046294,67.8493818 C19.4677068,68.4451737 21.3114781,68.4512262 22.9642167,68.7829783 C25.5832714,69.3076535 31.412107,71.9314079 32.7399822,68.7829783 C33.1054986,67.9136895 33.0616078,67.1465364 32.6799022,66.4781145 C31.8675635,65.053888 29.7176362,64.1683331 27.4083351,64.5473702 L27.4083351,64.5473702 Z M53.9514469,65.7941832 C52.867849,66.6657417 53.1132055,68.5741674 54.069808,69.0326435 C54.8889821,69.4256771 56.1783629,69.3886056 57.2101553,69.2202707 C58.1836665,69.0583666 59.3205089,68.6554978 60.1123413,68.4727882 C60.6023347,68.3574126 60.9984308,68.0423049 61.2387506,67.8501383 C59.6273844,68.2934832 55.8344321,68.6002688 55.7293821,67.2883916 C55.6941256,66.8526123 55.8563774,66.6978956 56.2618272,66.4168331 C56.9453717,65.9375515 58.040482,65.5293867 58.9877307,65.3568908 C59.3928208,65.2816129 59.6925011,65.2956093 60.1123413,65.2956093 C60.1123413,65.2956093 60.1569515,65.1060907 60.1724212,65.0470789 C59.0996162,64.9997939 58.0814946,64.6827947 56.9723538,64.8605866 C55.8761643,65.0308129 54.6770833,65.2059568 53.9514469,65.7941832 L53.9514469,65.7941832 Z M24.3417387,65.4662139 C24.3514522,65.4699967 25.2155964,65.5853723 25.2155964,65.606556 C27.4399941,65.606556 29.2445515,65.6406012 29.7777162,67.2271101 C29.7921066,67.1680984 29.8960773,67.3515645 29.8960773,67.3515645 C29.4737188,67.7200098 28.9794082,68.1648678 28.2965832,68.2862959 C27.0223124,68.5087249 25.3749702,68.2802434 24.4460692,67.9745926 C24.4460692,67.9745926 24.686389,68.1221221 24.7414324,68.161085 C24.94002,68.2934832 25.10515,68.4557656 25.393318,68.5359611 C25.1824984,68.3884316 26.0570756,68.7477982 26.4002869,68.9081892 C27.7148509,69.5240301 29.9982492,70.0033116 31.3772103,69.1578544 C31.8466974,68.8677132 31.997437,68.4376081 32.1481765,67.9742144 C32.7795558,66.0132076 29.6222998,64.6865775 26.6978086,65.1707767 C26.5333982,65.1972563 24.7917988,65.4117415 24.3417387,65.4662139 L24.3417387,65.4662139 Z M77.4729322,66.2299624 C76.3828586,66.3192367 75.2086012,66.5654973 74.2145836,66.7274014 C73.0651496,66.9150286 72.0052958,66.9150286 70.7187932,66.9150286 C73.1072415,67.2429979 76.6742644,67.0391047 79.4271499,67.0391047 C79.3375696,67.0254866 79.5462306,66.8518558 79.5462306,66.8518558 C78.8443383,66.6214829 78.2694414,66.1630068 77.4729322,66.2299624 L77.4729322,66.2299624 Z M7.1448387,66.7277797 C6.72427896,66.8299155 6.10153395,67.3515645 5.66370572,67.5380568 C8.55401962,67.5380568 12.0962191,67.993885 14.5505036,67.4128459 C13.4431615,67.3216803 12.294447,67.2475373 11.232075,67.1654504 C9.88261425,67.0580187 8.86089512,67.046292 7.6780034,66.8526123 C7.62979552,66.8446684 7.37508526,66.6695245 7.1448387,66.7277797 L7.1448387,66.7277797 Z M48.8558026,66.7277797 C48.7122583,66.9547481 48.467981,67.1348097 48.8277413,67.4453781 C48.8608392,67.4310034 48.9155228,67.5376785 48.9155228,67.5376785 C49.3310459,67.271369 49.2796002,67.043644 48.8558026,66.7277797 L48.8558026,66.7277797 Z M36.4131344,66.8522341 C36.2987306,67.2142486 36.2357726,67.4124676 36.2357726,67.4124676 C36.2357726,67.4124676 36.3865121,67.6753727 36.5904962,67.7865872 C36.8103097,67.2399717 36.8711092,67.1370794 36.4131344,66.8522341 L36.4131344,66.8522341 Z M38.7825154,67.039483 C38.2140942,67.6265745 38.855187,68.874144 38.9620358,67.7253057 C38.9965728,67.3235717 39.0163596,67.5418396 38.7825154,67.039483 L38.7825154,67.039483 Z M42.6934692,67.4718577 C42.1210906,68.0608406 42.7650615,69.3065187 42.8690322,68.1576805 C42.9050082,67.7559464 42.9251548,67.9753492 42.6934692,67.4718577 L42.6934692,67.4718577 Z M46.5450625,67.039483 C46.4371344,67.2581292 46.3399991,67.7048786 46.4267014,67.7253057 C46.6224109,68.5889204 46.8404256,67.9450868 46.8404256,67.1018993 C46.8299926,67.0977382 46.5839166,67.0663409 46.5450625,67.039483 L46.5450625,67.039483 Z M44.4120439,67.2271101 C44.2710179,67.3235717 44.3206648,67.675751 44.4120439,67.7253057 C44.1317907,67.7317365 44.494429,67.929199 44.2940426,68.0370089 C44.7545357,69.2066526 44.9426903,67.7464894 44.4120439,67.2271101 L44.4120439,67.2271101 Z M40.9381989,68.0373872 C40.7378124,67.9295773 41.1004508,67.7317365 40.8198378,67.725684 C40.9094181,67.675751 40.9601443,67.3235717 40.8198378,67.2274884 C40.2899109,67.7464894 40.4777057,69.2066526 40.9381989,68.0373872 L40.9381989,68.0373872 Z M81.4418074,68.7213186 C82.0609548,68.5779502 82.0274971,67.2380803 81.0870838,67.4756405 C80.4783694,67.6265745 80.7302016,68.8851141 81.4418074,68.7213186 L81.4418074,68.7213186 Z M75.8140777,67.9745926 C76.0860564,68.1126651 76.3393276,68.3816226 76.6440446,68.5359611 C76.6440446,68.5359611 76.7325456,68.4398778 76.701966,68.099047 C76.3216994,68.0214994 76.2137713,68.0214994 75.8140777,67.9745926 L75.8140777,67.9745926 Z M4.30093387,69.2202707 C4.83589737,69.026591 4.63551091,67.9273076 3.82676985,68.099047 C3.18567707,68.2329583 3.3936185,69.5459703 4.30093387,69.2202707 L4.30093387,69.2202707 Z M49.2698867,68.161085 C48.6795201,68.3445511 48.9237973,69.21384 49.7447702,69.0326435 C50.2038243,68.9301295 50.8571489,67.6621329 49.2698867,68.161085 L49.2698867,68.161085 Z M35.1104425,68.2862959 C35.1913885,68.3676262 35.2370781,68.8870055 35.5241668,69.0326435 C36.4487506,69.4979287 37.3024617,68.2862959 35.1104425,68.2862959 L35.1104425,68.2862959 Z M9.21885658,68.4727882 C8.81952269,68.512886 8.26801022,68.6732769 8.804053,69.0954381 C8.96234751,69.0125947 10.0409088,68.3846488 9.21885658,68.4727882 L9.21885658,68.4727882 Z M75.5766359,68.9081892 C75.6784481,69.0833331 75.833145,69.5368916 75.9910797,69.6564283 C76.754491,70.2200664 77.1225257,69.6473495 77.2351307,71.1513933 C77.2351307,71.1513933 77.384791,71.5970079 77.4124925,71.7123834 C78.1467632,70.9709534 76.8278821,69.3579649 76.2878819,69.0954381 C76.0428852,68.9770363 75.8209131,68.9933024 75.5766359,68.9081892 L75.5766359,68.9081892 Z M81.1460844,70.2790782 C81.6382365,70.0842637 81.4792224,68.8397204 80.6122002,69.0954381 C80.0624865,69.2546943 80.2484826,70.632014 81.1460844,70.2790782 L81.1460844,70.2790782 Z M9.63366015,69.4067631 L9.33577866,69.6564283 C8.34176107,70.0555143 7.73736384,70.7753823 7.73736384,72.2117139 C8.55941602,71.9472957 7.94890287,71.3946277 8.32952922,70.6524411 C8.41047528,70.4909153 9.24224099,70.2794565 9.51421975,69.8425423 C9.55703122,69.7714256 9.57609851,69.7914745 9.63366015,69.6564283 C9.63366015,69.6564283 9.94845038,69.3685567 9.63366015,69.4067631 L9.63366015,69.4067631 Z M4.71573744,70.9028629 C5.29567098,70.7231796 5.10967492,69.4165984 4.2408539,69.7184663 C3.68862191,69.9087414 3.867063,71.1627417 4.71573744,70.9028629 L4.71573744,70.9028629 Z M80.6118405,71.8368378 C81.1414076,71.6783382 81.1219805,70.5790547 80.3751182,70.5911597 C79.553066,70.6002384 79.7926664,72.0774242 80.6118405,71.8368378 L80.6118405,71.8368378 Z M5.30718331,72.3350333 C5.51872234,71.9208161 5.60650384,71.1056213 4.83409857,71.2138096 C4.18437154,71.3030838 4.13940151,72.3350333 5.30718331,72.3350333 L5.30718331,72.3350333 Z M76.169161,71.2758476 C76.2119725,71.9147636 76.2065761,71.945026 76.4066028,71.4010585 C76.3486814,71.3632304 76.1936247,71.320863 76.169161,71.2758476 L76.169161,71.2758476 Z M9.04041549,71.8988758 C8.60906294,72.0604016 9.24655811,72.2881265 9.21885658,72.2729953 C9.21885658,72.1424885 9.19115504,72.0233301 9.21885658,71.8988758 C9.20842353,71.8988758 9.04221429,71.9056848 9.04041549,71.8988758 L9.04041549,71.8988758 Z" id="Shape"></path>
                        <path d="M42.0419433,14.5730624 L42.0419433,14.8324824 C42.3623481,14.7546038 42.819707,14.5814817 42.8780392,14.5730624 C42.7571477,14.5730624 42.7436214,14.3694204 42.7393944,14.3999404 C42.7478484,14.3246928 42.8780392,13.9663459 42.8780392,13.9663459 C42.678526,13.9205659 42.3784107,14.0094949 42.1831244,13.9663459 C42.178052,13.9952873 42.0571605,14.3973093 42.0419433,14.5730624" id="Shape"></path>
                        <path d="M38.8181861,15.4578944 C38.8205048,15.4578944 38.8181861,15.6345514 38.8181861,15.644765 C38.9043643,15.6145025 39.047737,15.644765 39.1377796,15.644765 C38.7957721,15.0016879 38.7157771,14.8776119 38.3100054,14.2734978 C38.2528109,14.7686671 38.4978197,15.314526 38.8181861,15.4578944" id="Shape"></path>
                        <path d="M40.0055043,14.7728282 C39.9814501,14.6642616 40.3883089,15.1087414 40.4590968,15.2089857 C40.8838244,14.9812608 40.4556605,14.338562 40.230926,14.2731195 C40.0199368,14.3869819 39.5278576,14.5765005 40.0055043,14.7728282" id="Shape"></path>
                        <path d="M44.4714044,14.9593205 C44.7000913,14.9320843 44.7303064,15.0217368 44.4714044,15.0217368 L44.4714044,15.2082292 C44.6876498,15.154135 45.0229783,15.0258979 45.0567481,15.0217368 C45.0567481,15.0217368 45.1420614,14.7278128 45.1539105,14.7107901 C45.1965671,14.6226508 45.5295258,14.4842001 45.0567481,14.2746326 C44.8766424,14.6173548 44.8132499,14.628325 44.4714044,14.9593205" id="Shape"></path>
                        <path d="M46.0940513,15.0837748 C46.0521626,15.1560264 45.774456,15.33344 45.774456,15.33344 C45.8667663,15.3947215 45.7577781,15.6504392 45.9028371,15.768841 C46.1952823,15.4117441 46.9035117,14.4842001 46.4776432,14.2734978 C46.270139,14.6105458 46.3077613,14.7096553 46.0940513,15.0837748" id="Shape"></path>
                        <path d="M37.5538551,15.5199324 C37.4363449,15.369755 37.2444665,15.259297 37.0801167,15.1458129 C36.4601071,15.5630564 38.4635313,16.6672575 37.5538551,15.5199324" id="Shape"></path>
                        <path d="M47.4017796,15.4849185 C47.2674897,15.6814897 47.446543,15.6029434 47.4017796,15.6880695 C47.3632989,15.756746 47.1426235,15.8426945 47.0782272,15.8920429 C47.0782272,15.8920429 47.3856805,16.0121241 47.4665687,16.0273399 C47.6146018,15.7764854 48.1556883,15.3413968 47.7893358,15.1477043 C47.6039999,15.2982169 47.4791338,15.3668935 47.4017796,15.4849185" id="Shape"></path>
                        <path d="M49.1518853,15.8940519 C49.1518853,15.8940519 48.8388939,16.1656574 48.7378012,16.3922475 C49.0799332,16.4062439 49.5666889,16.0994583 49.9224918,15.7695976 L49.8030514,15.4563812 C49.4918587,15.580079 49.5325116,15.7026419 49.1518853,15.8940519" id="Shape"></path>
                        <path d="M36.1177712,16.5791181 C36.0749597,16.5730656 36.1177712,16.2674149 36.1177712,16.2674149 C35.9155859,16.2031072 35.2842067,15.4828609 35.0514418,15.5199324 C34.3585435,15.6243378 35.9220616,16.4769824 36.1177712,16.5791181" id="Shape"></path>
                        <path d="M50.8110996,17.3530919 C50.4257964,17.4856734 50.0404931,17.6240016 50.0404931,17.6240016 C50.0404931,17.6240016 49.9861693,17.7438586 49.922132,17.8949113 C50.3380149,17.7927044 50.1387077,17.8764402 50.5142974,17.7590459 C50.8625453,17.6469878 50.7844773,17.6219492 51.2251837,17.5554532 C51.2251837,17.5554532 51.0751636,17.4290287 51.1068225,17.4204088 C51.4216128,17.318202 51.5316994,17.5250785 51.8187881,17.3530919 C51.9054903,17.2984995 51.8328187,17.0850554 51.9957901,17.0817717 C51.9957901,17.0817717 51.4439179,17.0152757 51.4629852,17.0152757 C51.1593475,17.0961381 50.9859431,17.2919319 50.8110996,17.3530919" id="Shape"></path>
                        <path d="M32.9184232,17.389682 C33.8027139,17.5676811 34.0718146,17.8284176 35.1104425,17.9521441 C35.085619,17.9460716 35.006112,17.7870489 34.9920814,17.7646567 C35.085619,17.8147545 33.4411549,17.0029419 32.9774239,17.0773296 C32.7324272,17.1149029 33.025272,17.3483133 32.9184232,17.389682" id="Shape"></path>
                        <path d="M42.2783058,0.194271409 C42.4585457,0.65955657 42.8211841,1.16796572 42.9309109,1.44070605 C43.3133361,2.39737773 43.546101,2.78662849 43.6928832,3.95475904 C43.6928832,3.95475904 43.8990258,5.38314665 43.9389592,5.80114674 C44.4160013,5.33397017 45.4251288,4.47338177 46.6641431,5.05366424 C47.4340301,5.41265254 47.9096331,6.4517894 48.0261955,7.17090086 C48.0290735,7.44591087 48.011805,8.16880513 47.9671948,8.4797518 C47.7743633,8.30233819 47.3746696,7.73151273 47.3746696,7.73151273 C46.1806253,6.90799583 45.1826504,7.74740052 44.8272073,8.79069847 C44.6091925,9.42356194 44.8585064,10.0776091 45.0045691,10.2860418 C46.7188267,12.710064 51.4726987,10.0522643 52.5875957,9.22685602 C52.7527257,9.10467138 52.7840248,9.08537907 52.8851175,9.04036367 C53.0336985,8.97000348 53.5960037,8.66624414 53.5960037,8.66624414 C54.1241318,8.56183869 54.8738722,8.64506043 55.2544985,8.79069847 C56.0114341,9.07781346 56.5820139,9.84269687 56.7957115,10.3492146 C56.8518341,10.4888002 56.9568841,11.4666556 56.9723538,11.4704384 C56.9633597,11.5143189 56.8824137,11.7401524 56.8536329,11.9058394 C56.2855714,11.6156981 55.2131261,10.879564 54.3662505,11.4704384 C54.1856508,11.592623 53.8111404,12.3548585 54.2471698,12.6529436 C54.5285023,12.8443536 56.0171903,13.0788876 56.5582697,12.9646468 C57.3763645,12.788368 58.1322208,12.1664747 58.394486,11.7189687 C58.4804687,11.5687913 58.5538598,11.0270935 58.6912883,10.8462753 C58.768277,10.7399785 58.8744062,10.8481668 58.9276507,10.8462753 C59.1985502,10.2334607 59.5816949,10.014058 60.4677844,9.72505159 C60.7235739,9.64182986 61.5905962,9.41637461 62.1867189,9.60059727 C62.4993506,9.69668055 62.9771122,10.0288109 63.2530483,10.224382 C62.5576317,10.8810772 62.0100766,12.36772 62.6608829,13.27635 C62.8076651,13.4828913 63.0947538,13.4938614 63.3717692,13.5872967 C63.627199,11.7707932 65.6159537,10.5553776 67.5187257,11.4700601 C67.537793,11.4772474 67.5543419,11.6985416 67.5788056,11.7185905 C68.0321036,12.0654738 68.3371803,12.2701236 68.7034162,12.8398142 C67.6809776,13.1957763 66.7689853,13.6323121 67.1039221,14.8325965 C67.8353147,14.8878255 68.2245753,14.5549385 68.7627766,14.2099466 C68.7710511,14.2046507 68.8786194,13.961038 68.8814975,13.961038 C70.466961,13.2286867 72.2117982,14.1864932 73.1482542,15.0202237 C73.582125,15.4083396 72.0624977,15.7752718 71.7261219,15.9549551 C69.661098,17.0451598 70.0931701,19.4203838 71.0735168,21.0628783 C70.5205653,20.9516638 70.001791,20.9656602 69.4743824,20.7519316 C68.6836294,20.4281234 67.8705712,19.6148201 67.5788056,18.9456417 C67.2668935,18.2386352 67.2593385,17.8936433 67.2230027,16.8885517 C66.9503045,16.8132738 66.8855476,16.754262 66.6308374,16.8885517 C65.5216965,17.4635382 66.5527694,20.2272564 66.8085589,20.938424 C66.4365668,20.938424 65.9843482,21.0148367 65.6238684,20.938424 C65.0000441,20.8041344 64.2240412,20.2514664 63.8459332,19.8172002 C62.9425752,18.7810896 62.6612427,17.460512 62.6612427,15.5176627 C62.2914091,15.4896699 61.8312758,15.6432519 61.8312758,15.6432519 C61.6938474,15.919775 61.4351797,16.061252 61.358191,16.3914909 C61.2189638,16.9668558 61.4938207,17.3273572 61.5945535,17.6995853 C62.1726883,19.8739423 64.2963531,21.6579137 66.9859207,22.1844803 C69.1232564,22.6017239 71.0501324,21.7331916 72.2582073,20.7523099 C72.6809256,20.407318 72.8755559,19.7725631 73.1486139,19.2569666 C73.8199266,17.9723256 74.6088808,16.4569335 76.1702403,16.0809225 C76.9293345,15.8944302 77.7506671,16.0075361 78.2435387,16.4527724 C78.595744,16.7705281 78.7522397,17.0674784 78.8353443,17.6995853 C78.8353443,17.6995853 78.7525994,18.4137791 78.6579825,18.5719004 C78.035957,18.3646026 77.2952106,18.1175854 76.464884,18.3222352 C75.5626053,18.5420163 74.2606329,20.1527351 73.6220584,20.8135914 C73.1838704,21.2637453 72.7194199,21.7611843 72.2585671,22.1848586 C72.4294532,22.1288731 72.5726378,22.050569 72.7327311,21.9983663 C73.196462,21.8440278 73.4497333,21.7396223 73.9185009,21.5622087 C76.0216593,20.7587407 78.8029659,19.2255693 81.6202485,20.1920763 C81.8997822,20.2870247 82.2613412,20.6244511 82.5106551,20.7526882 C83.1866446,21.1048674 83.8486035,21.5482123 84.1087101,22.3093129 C84.6436736,23.8769078 82.6869376,26.3879346 81.7976103,25.6117027 C81.5688027,25.411214 81.4173437,25.0136411 81.1460844,24.8642202 C80.825538,24.6868066 80.5424067,24.815422 80.1387557,24.6758365 C80.1329996,24.6735668 79.9308143,24.3539197 80.1387557,24.4889659 C80.4848451,23.7781766 80.5737059,23.356772 80.3171968,22.4950487 C80.1448716,23.5432643 79.6095484,24.3194961 78.9540652,24.8010474 C78.3349178,23.9423504 77.0444578,23.6306471 75.8140777,23.4297801 C74.458501,23.205838 73.2101329,24.0013621 72.1398462,24.1780192 C71.205189,24.3297097 70.2809649,24.3558111 69.4740227,24.4889659 C68.6447753,24.6232555 67.8828031,24.3376536 67.2820034,24.2404355 C64.7874258,23.8322707 63.2472921,22.6951592 60.2310622,22.9323411 C59.5388834,22.9845438 59.0319812,23.2792244 58.6315681,23.554991 C59.5662252,24.1557006 59.9680774,25.3904086 58.6909285,26.3584287 C56.5647454,27.9619602 55.3940855,25.899196 54.7803345,24.4889659 C54.0716068,24.4889659 53.5999611,24.4038527 53.0624793,24.1780192 C52.3839714,23.8924173 51.9306735,23.0757095 51.700427,22.5582216 C51.5640778,22.2544622 51.4457167,21.9193056 51.4029052,21.9355717 C51.3464229,21.1911154 51.4295275,21.3726901 51.2845441,20.938424 C51.5536448,20.8060258 51.5536448,20.981548 51.8777888,21.0628783 C52.8020129,21.2924946 53.3560437,20.3055605 53.4762036,20.0036926 L53.3578425,19.8792382 C53.6107539,17.5452468 51.4327653,16.1652791 49.7447702,15.3319269 C48.0963487,14.517867 46.3443163,13.8986217 43.8777999,13.8986217 C43.8738426,13.979952 43.9004648,14.50841 43.8777999,14.5844444 C43.6626633,15.2975034 43.5496986,14.4338887 43.582077,14.4599901 C43.5612109,14.3366706 43.5000517,14.3268353 43.5237958,14.2095683 C43.5676866,13.9496895 43.6295654,13.9667122 43.7011576,13.7741673 L41.0353341,13.7741673 C41.3450877,14.3238091 41.3288985,14.3328878 41.212696,14.8322182 C41.1860737,14.7629929 40.916973,14.5844444 40.916973,14.5844444 C40.8511369,14.295438 40.959065,13.9303972 40.8568931,13.8986217 C39.8218628,13.5494686 37.5582513,14.3449928 36.7685775,14.5844444 C34.7208221,15.1991504 30.9721203,17.5970713 31.5538526,20.1909415 C31.5538526,20.1909415 31.560688,20.6422302 31.7322937,20.8128348 C32.0967308,21.1740928 33.1832068,20.9304801 33.6278705,21.1249163 L33.56851,21.3745815 C33.5141862,21.1778756 33.5987299,22.4889962 33.3317878,22.4337673 C33.3317878,22.4337673 33.4318011,22.6160985 33.4501489,22.6202596 C32.5860048,23.4354543 32.3028734,24.6754582 30.19216,24.6754582 C29.7913871,25.5489082 29.4546515,26.6871545 28.4142248,27.0431166 C27.0856302,27.4966751 25.1159428,26.3081174 25.4515991,24.863842 C25.5642041,24.382669 25.8703601,24.206012 26.2222056,23.8670725 C23.6290537,21.9355717 19.5835496,24.5400337 16.8612437,24.9871614 C15.7546212,25.1687361 14.2648539,24.7927252 13.6028951,24.6754582 C10.5773113,24.1409477 7.94278694,24.1095504 5.60434528,25.2992429 C5.06506465,24.8710293 4.74271946,23.9434852 4.47901519,23.2432878 C4.18904843,23.9673169 4.34158678,24.7817551 4.59629704,25.4236973 C3.57673647,25.4236973 3.29324539,25.91811 2.99752246,26.6701319 C2.30786205,26.3792341 1.74699581,26.0081408 1.33794839,25.4236973 C1.01272512,24.9584121 0.471645696,24.3724554 0.627421887,23.4297801 C0.74362445,22.7144515 1.27031347,22.2412224 1.75275197,21.8731554 C4.49016776,19.7699151 6.60375927,20.6475262 9.63330039,21.6862848 C10.558244,22.0032839 11.4263455,22.1447609 12.2401232,22.5578433 C10.8751928,21.7070902 10.2380574,19.9000437 8.7443328,19.1930372 C7.77549843,18.7345611 6.91495189,18.7727674 5.95942865,19.1930372 C5.90006821,18.6362081 5.86013482,17.9344976 6.07778977,17.5123364 C6.39653736,16.8866603 7.04122774,16.5764702 7.97408609,16.5764702 C7.90537188,16.5620955 8.47775045,16.5193498 8.74469256,16.5764702 C9.93693805,16.8299182 11.0482375,18.9293756 11.7073183,19.8792382 C11.8199232,20.0426555 11.758764,20.2843768 11.8846801,20.4394718 C12.1516222,20.7704674 12.8193372,21.1737145 13.1877317,21.4366195 C13.5007231,21.6601834 13.8975387,22.1527048 14.2540611,22.3081781 C16.5079591,23.2818724 18.9755547,22.6058849 20.4768343,21.6859065 C20.8009783,21.4831481 21.0740363,21.0473688 21.3640031,20.8124565 C21.6795128,20.555604 22.0086935,20.4493071 22.2529707,20.1273903 C22.8289468,19.3591024 23.3919716,18.3248832 23.4376612,17.2619146 C23.4434174,17.0924449 23.37938,16.6392647 23.37938,16.6392647 C22.9044965,16.2133208 23.062791,15.7128555 22.0752491,15.8301225 C22.0752491,19.0103277 21.1902389,21.3742032 18.046294,21.3742032 C18.3535293,19.9038265 19.3856814,17.6731057 17.7505711,17.0758006 C17.3843351,17.5490296 17.6840154,18.3876778 17.4541286,19.0685829 C17.0447214,20.2783243 15.4006171,21.4366195 13.7809764,21.4366195 C13.9504235,20.9671733 14.3738613,20.3694899 14.4925822,19.8792382 C14.8501839,18.3524977 14.1644808,17.2312739 13.3650935,16.701681 C13.3348737,16.6804973 13.3366725,16.4701733 13.3060929,16.4520158 C12.7678915,16.1319904 11.9580712,15.9886221 11.4115953,15.7669496 C11.994407,14.9536463 13.8637212,13.5785963 15.5589116,14.2716063 C16.0359537,14.4671774 16.7015102,15.3606763 17.2767668,15.3315486 C17.9128229,15.295612 17.7048815,14.5345114 17.5124098,14.2095683 C16.8580059,13.1000713 15.1030953,13.563465 16.8619632,12.2164077 C16.9781658,12.1252421 17.0763803,11.8400185 17.2166868,11.7802502 C19.3360345,10.8353052 21.1035367,12.4933092 21.3640031,13.8986217 C21.8047094,13.7189384 22.1058287,13.4764605 22.1936102,13.1503826 C22.3360753,12.6086847 22.2871479,11.6743316 22.0752491,11.2820546 C22.0752491,11.2820546 21.9817114,11.1307424 21.956888,11.095184 C21.7852823,10.8387097 21.6345428,10.8496799 21.3636433,10.6590264 C21.7126108,10.3802336 22.0216448,9.93878014 22.5479741,9.84874936 C23.3588737,9.70689412 24.2305728,9.91267878 24.7407128,10.0984146 C24.7407128,10.0984146 25.2033645,10.3571585 25.3339575,10.4721558 C25.4170621,10.5436509 25.5534113,10.6979893 25.6296804,10.7842373 C25.6983946,10.8636763 25.6609796,10.7691061 25.7480416,10.8455188 C25.8617258,10.9438717 25.9113727,11.1125849 26.0448438,11.2196383 C26.0448438,11.2196383 26.1326253,11.5347461 26.2222056,11.7178339 C26.3805001,12.0427769 27.0215929,12.7732368 27.5252572,12.963512 C28.3645779,13.2805111 30.4842853,13.0550559 30.6659643,12.528111 C30.7321602,12.3287571 30.5476031,12.0908186 30.5476031,12.0908186 C30.0813539,10.8470319 28.5379824,11.7019461 27.8224192,12.0908186 C27.7975957,11.4742212 27.6583685,11.2525487 27.8224192,10.5954753 C27.9073226,10.243296 28.3091748,9.75796201 28.473945,9.59946243 C29.0283356,9.06079083 30.4591021,8.47823868 31.6722137,8.97681253 C32.0442058,9.12812478 32.3751853,9.66566154 32.7396224,9.84837108 C32.8615811,9.90851769 33.181408,10.1411603 33.2137864,10.1600743 C34.0743329,10.6715097 37.4316157,11.8521235 39.0796774,11.0948057 C40.5600908,10.4108744 39.9121626,8.27548026 38.9595175,7.66796159 C37.9406764,7.0158058 37.2844737,8.02997614 36.7106561,8.47823868 C36.566752,7.06725197 37.0006229,4.29596816 39.4347608,5.05215111 C40.0679388,5.24772219 40.4154672,5.35023624 40.7396112,5.79963362 C40.7996912,4.66327864 40.8957472,3.32038244 41.2716966,2.24833517 C41.3317766,2.06865187 41.4415035,1.77397127 41.4501377,1.75089615 C41.4835954,1.61660654 41.8365202,0.882363855 41.940491,0.654638922 C41.9904976,0.544180982 42.2344151,0.274466901 42.2783058,0.194271409 M57.4465178,15.33344 C57.0953918,15.3565152 56.2826933,15.5604084 56.0243855,15.6443867 C56.7054116,16.0192628 57.2364178,16.4758475 58.0386832,16.8896865 C58.0224939,16.8397535 58.0386832,16.7493444 58.0386832,16.7031942 C57.7857717,16.6593136 58.2419477,15.2782111 57.4465178,15.33344 M26.9330918,15.5191758 C26.9330918,16.2560665 26.9492811,16.5208629 26.8147307,17.077692 C27.710174,16.7345915 28.1264166,16.2560665 28.7700277,15.8320139 C28.1044712,15.7355523 27.6000874,15.5993713 26.9330918,15.5191758 M56.1423868,19.070096 C56.1668505,19.4854481 56.2139791,19.4555639 56.2618272,19.8807514 C56.8892491,19.8807514 57.5137929,19.885669 56.8539926,19.5077667 C56.7269973,19.4336237 56.4053716,19.2206517 56.1423868,19.070096 M28.5930257,19.2577232 C28.3527058,19.4332454 28.0825259,19.6397866 27.8231387,19.8183351 C27.7601807,19.8614591 27.7126923,19.8637287 27.585697,19.8807514 C27.6191547,19.9076093 27.7040581,20.0683785 27.7040581,20.0683785 C27.7040581,20.0683785 28.3965966,20.1686229 28.5933854,20.1928329 C28.6725327,19.9231188 28.6131722,19.7895857 28.6534654,19.632221 C28.6531056,19.632221 28.813199,19.3791513 28.5930257,19.2577232" id="Shape"></path>
                        <path d="M50.6330183,19.6622443 C50.6218657,19.6640317 50.6330183,20.0742429 50.6330183,20.1028415 C50.5632248,20.000959 52.1792679,20.652471 52.8851175,20.247622 C53.9590018,19.6220275 52.1961766,19.4540106 51.8777888,19.5129953 C51.6126455,19.5603617 50.9607599,19.4155813 50.6330183,19.6622443" id="Shape"></path>
                        <path d="M31.8510146,19.7205424 C31.1289757,20.1171768 34.0192896,20.4066503 34.3394763,20.4066503 C34.2534936,20.2591301 34.3268846,20.1373564 34.3394763,19.8325742 C33.5861383,19.8325742 32.4068442,19.3399126 31.8510146,19.6057272 C31.7833796,19.6335612 31.7474036,19.7205424 31.8510146,19.7205424" id="Shape"></path>
                        <path d="M49.6256896,23.1489562 C50.1289942,23.4381432 49.8832779,23.4132201 50.3365758,23.2791102 C49.8088075,23.1058353 49.2698867,22.4534832 48.7968019,22.497791 C48.5003595,22.5235053 49.4328581,23.0366045 49.6256896,23.1489562" id="Shape"></path>
                        <path d="M35.2288036,23.0088385 C35.1295098,23.0628423 34.9712153,23.2651611 34.8730007,23.3305136 C34.0459119,23.8670302 36.0468984,22.9622699 36.1174114,22.943486 C36.0116419,22.8894821 36.383634,22.6002875 35.9990503,22.6218108 C35.7493767,22.6355074 35.4558123,22.8820468 35.2288036,23.0088385" id="Shape"></path>
                        <path d="M47.4930308,23.2448009 C47.9045965,23.2769548 49.3015456,24.9708954 49.7440507,25.3007561 C49.3350033,25.1683578 46.9055423,23.1975158 47.4930308,23.2448009" id="Shape"></path>
                        <path d="M36.2361323,24.4901007 C36.3332676,24.4170925 36.1767719,24.4280627 36.1767719,24.4280627 C35.7839137,24.7583017 35.4478976,25.253471 35.2288036,25.4252104 C36.1289238,25.0450384 36.8329746,24.2086599 37.3614624,23.6809585 C37.5006896,23.5387249 37.6999968,23.2156733 37.4208228,23.3068389 C36.8732677,23.4842525 36.4469518,24.3667812 36.2361323,24.4901007" id="Shape"></path>
                        <path d="M41.9430921,24.2415703 C42.032763,25.2243434 43.5827882,23.6249729 42.1375731,23.3068389 C41.8534213,23.7308915 41.90932,23.8874997 41.9430921,24.2415703" id="Shape"></path>
                        <path d="M43.3890543,23.3068389 C43.9389477,23.8042779 43.7448677,24.3830473 43.1189596,24.8025605 C42.9394356,24.7809985 42.5625969,23.8073042 43.3890543,23.3068389" id="Shape"></path>
                        <path d="M45.4193726,23.5565041 C45.7463947,23.7743938 46.0968012,24.4390328 46.5450625,24.8645985 C46.4810252,24.5748356 45.7302055,23.2701457 45.5377338,23.3068389 C45.4747757,23.3166742 45.4344826,23.5035448 45.4193726,23.5565041" id="Shape"></path>
                        <path d="M38.7825154,24.117116 C38.7825154,24.117116 38.5439944,24.6599487 38.4867925,24.8645985 C38.933255,24.6349822 39.3088447,23.9608861 39.5531219,23.4324281 C39.488365,23.4324281 39.3775589,23.4475593 39.3163996,23.4324281 C39.1735748,23.6767974 38.9868592,23.9313802 38.7825154,24.117116" id="Shape"></path>
                        <path d="M40.6945143,24.3656464 C40.6262637,24.4848048 40.6855767,24.6304428 40.6945143,24.6153116 C40.4791999,24.6633532 40.6904517,24.743927 40.6945143,24.7397659 C40.5783258,24.7647324 40.6945143,24.9886746 40.6945143,24.9886746 C40.6815142,25.1180465 40.5604506,25.5031362 40.5604506,25.7369136 C40.5645131,25.7308611 40.9203912,25.7369136 40.9618291,25.7369136 C41.3063321,25.0677352 41.586647,23.9294888 41.2332064,23.5565041 C41.0650175,23.9026309 40.8326405,24.1311124 40.6945143,24.3656464" id="Shape"></path>
                        <path d="M44.0014842,23.9926617 C44.2220565,24.7299306 44.4344361,25.222452 44.5176234,25.7357788 C44.5308577,25.7357788 44.8264246,25.7331308 44.8302059,25.7357788 C44.7728571,24.9516031 44.6676126,23.6378345 44.1035776,23.5553693 C44.1035776,23.5553693 43.9605207,23.8644246 44.0014842,23.9926617" id="Shape"></path>
                        <path d="M41.8045016,14.8348662 C42.4186123,14.7297042 43.2942688,14.8893386 43.582077,15.0217368 C43.616614,15.0357332 43.8184395,15.33344 43.8184395,15.33344 C44.3631165,15.5240935 44.1353883,15.2373568 44.7077668,15.4578944 C44.758493,15.4779432 44.8372805,15.7438745 44.8858482,15.768841 C45.3236764,15.9973225 45.8406519,15.8520628 46.3662616,15.9564682 C47.0444097,16.0888664 47.7110455,16.3926258 48.5590004,16.3926258 C48.7406793,16.9952268 49.1446901,17.2721282 49.8026916,17.8868342 L49.922132,18.3854081 C50.0329382,18.6702534 50.1387077,19.3432146 50.3372953,20.0052057 C50.1034512,20.246927 50.1423053,20.5075623 49.8026916,20.8143479 C49.3080212,21.2595842 48.580586,21.3658811 48.0261955,21.7490793 C47.7621314,21.9302758 47.6581607,22.483322 47.3743099,22.6217727 C47.0282205,22.7889728 46.616295,22.5676786 46.1888998,22.6838107 C46.0932036,22.7099121 45.7453154,22.9747085 45.6557351,22.9958923 C45.1981201,23.0991629 44.431471,23.0189674 43.9389592,22.933476 C43.9389592,22.933476 43.7497253,22.6940243 43.7015174,22.6838107 C43.0931628,22.5483863 42.8402514,22.9607122 42.3977462,22.933476 C41.994455,22.9054832 41.9696315,22.495427 41.2724162,22.6838107 C41.2497513,22.6879718 41.0360537,22.9315846 41.0360537,22.933476 C40.5036085,23.0968932 39.4746942,23.0730615 39.0213962,22.933476 L38.7839545,22.6838107 C38.5961596,22.6338777 37.9511095,22.7950252 37.5992639,22.6838107 C37.1902165,22.5555736 37.3064191,22.0959627 37.0070986,21.8746685 C35.8918418,21.0522864 34.1970112,21.2489924 34.8150793,19.1336471 C34.8132805,19.1385648 34.7942132,19.008058 34.8150793,18.8839819 C34.8913485,18.3676289 35.1269915,17.7215256 35.4065252,17.5138495 C35.5993567,17.3670767 35.8587438,17.3924215 35.9997698,17.201768 C36.1256859,17.0281372 36.1141736,16.5579344 36.2954928,16.453529 C36.5663922,16.2969208 37.0146535,16.4516376 37.3618222,16.3922475 C37.7748269,16.3181045 38.6760264,16.1074022 39.4354803,15.9560899 C39.7484717,15.8921605 39.8150274,15.6583831 40.0287249,15.5199324 C40.2632886,15.3644591 40.4989316,15.4688645 40.9176925,15.33344 C41.0033155,15.3035559 41.478199,14.8893386 41.8045016,14.8348662 L41.8045016,14.8348662 Z M43.1082727,16.1429606 C42.9546551,16.1951633 42.9564539,17.1669662 43.7011576,17.0141408 C44.108766,16.9290277 43.8414641,15.886108 43.1082727,16.1429606 L43.1082727,16.1429606 Z M41.8045016,15.0217368 C41.2529891,15.0016879 40.9889251,15.6061804 41.1536953,15.9564682 L42.0415836,15.9564682 C42.1059807,15.6493044 42.2372932,15.0357332 41.8045016,15.0217368 L41.8045016,15.0217368 Z M42.8125498,15.1469477 C42.399545,16.4595814 43.9979599,16.0646565 43.7011576,15.5199324 C43.4964541,15.1480825 43.3324034,15.1889368 42.8125498,15.1469477 L42.8125498,15.1469477 Z M40.3240881,15.768841 C40.1506837,15.8036429 40.1380921,16.0045099 40.0283652,16.0816791 C39.8243811,16.2171036 39.5189447,16.2730891 39.4351205,16.3294529 C39.6747209,16.5299416 39.9168395,16.9471852 40.6208903,16.7035724 C40.7867398,16.6453172 41.2090984,15.580079 40.3240881,15.768841 L40.3240881,15.768841 Z M44.116321,15.768841 C43.7000784,17.6712143 45.810432,16.3256701 45.240212,16.2061334 C45.3186398,16.2231561 44.95816,16.043851 44.8279268,15.9564682 C44.6163877,15.8138564 44.5894057,15.7960772 44.116321,15.768841 L44.116321,15.768841 Z M41.2130557,16.1429606 C40.6863667,16.2802764 40.9705773,17.1336775 41.449778,17.0141408 C41.8854476,16.9040612 42.055974,15.9193967 41.2130557,16.1429606 L41.2130557,16.1429606 Z M42.0419433,16.1429606 C41.9437288,16.1777624 42.0419433,16.5167018 42.0419433,16.5167018 C41.9998514,16.4073787 41.9998514,16.6453172 42.0419433,16.7656105 C42.153469,17.0863924 42.1696582,16.9532377 42.6341087,17.077692 C42.8603979,16.6842801 43.116907,15.7366872 42.0419433,16.1429606 L42.0419433,16.1429606 Z M45.8330969,16.1429606 C45.7186932,16.1497696 44.7217975,17.5528124 46.7224243,17.0141408 C47.5923246,16.7796069 46.3065414,16.1077805 45.8330969,16.1429606 L45.8330969,16.1429606 Z M38.6655933,16.2674149 C36.9189573,16.5602041 38.5044207,17.3455147 39.2577587,17.077692 C39.5570793,16.9679906 39.2728687,16.1649008 38.6655933,16.2674149 L38.6655933,16.2674149 Z M47.3746696,16.453529 C46.8062484,17.2517011 47.588727,17.7514098 48.4402795,17.7010984 C48.4708591,17.5577301 48.5003595,17.1385952 48.5003595,17.1385952 C48.2503261,16.6646095 47.9477677,16.6120285 47.3746696,16.453529 L47.3746696,16.453529 Z M37.0067388,16.5779833 C36.8005962,16.6211073 36.7081378,16.8378621 36.5919352,17.0141408 C35.8680976,18.1054804 37.3567855,17.8134478 37.539184,17.4514332 C37.7629549,17.0012793 37.7104299,16.4255362 37.0067388,16.5779833 L37.0067388,16.5779833 Z M40.8572528,17.077692 C40.3830888,18.7754154 42.7276464,17.8777555 41.5094982,17.3266006 C41.3065934,17.2350567 41.1709638,17.1628051 40.8572528,17.077692 L40.8572528,17.077692 Z M43.7015174,17.077692 C42.6574931,17.2702368 42.78233,18.3774642 43.9983196,18.0124234 L44.0573203,17.8247962 C44.0573203,17.8247962 44.4361479,16.9392413 43.7015174,17.077692 L43.7015174,17.077692 Z M45.064649,17.263806 C44.9005983,17.8467365 44.4696056,17.6863455 44.8282865,17.0773137 L45.064649,17.263806 L45.064649,17.263806 Z M42.2203844,17.3266006 C42.1898048,17.5142278 42.1657009,17.8168523 42.1603045,17.7627582 C42.7542687,18.2507402 43.0492721,17.4083092 42.2203844,17.3266006 L42.2203844,17.3266006 Z M46.9598661,17.9492505 C46.3637433,18.1327166 46.1813449,17.4979617 46.6040632,17.3886386 C47.2131373,17.2271128 47.2451559,17.8599763 46.9598661,17.9492505 L46.9598661,17.9492505 Z M38.4277918,17.9492505 C37.6043006,18.0124234 37.8284312,17.5800486 37.7169055,17.5138495 C38.4134014,17.5138495 38.5288844,17.5448685 38.4277918,17.9492505 L38.4277918,17.9492505 Z M39.2577587,17.5138495 C39.0318293,17.550921 38.8951204,17.7903727 38.7835947,18.0120451 C38.504061,18.560552 38.7522956,18.7474226 39.6124823,18.5715221 C39.6275923,18.5113755 39.6811965,18.1675184 39.6725623,18.1985375 C39.698465,17.8387926 39.8434484,17.4105789 39.2577587,17.5138495 L39.2577587,17.5138495 Z M45.240212,17.5138495 C44.695535,18.5998932 46.2342296,19.2127078 46.1892596,18.1364994 C46.1932169,18.165627 46.1453688,17.8316053 46.1309784,17.7623799 C46.1309784,17.7623799 45.624436,17.5891274 45.240212,17.5138495 L45.240212,17.5138495 Z M48.9734442,17.8247962 C48.9943103,17.8739727 49.0051031,18.2117773 49.0335242,18.2620886 C49.1137507,18.3994045 49.4483277,18.3229918 49.4483277,18.3229918 C49.4483277,18.3229918 49.6407995,18.1164506 48.9734442,17.8247962 L48.9734442,17.8247962 Z M35.881049,17.9492505 C35.5910822,18.675171 35.3259389,18.6040543 35.5835272,17.9492505 C35.6540402,17.9802695 35.7990236,17.9492505 35.881049,17.9492505 L35.881049,17.9492505 Z M41.8045016,18.0124234 C41.3436487,18.0426858 41.4476194,18.2670062 40.7971729,18.1368777 C40.855454,18.4164271 40.5550542,19.1797974 41.6861405,18.9471548 C42.1182125,18.8548543 42.6628895,17.9492505 41.8045016,18.0124234 L41.8045016,18.0124234 Z M42.8125498,18.0124234 C42.5999315,18.445933 42.566114,18.5140235 42.9909909,18.7599059 C43.9170138,19.2932816 44.7343891,18.2673845 43.6414374,18.137256 C43.6414374,18.1368777 43.1151082,18.07257 42.8125498,18.0124234 L42.8125498,18.0124234 Z M49.2698867,19.0712308 C48.7719785,19.0492906 47.8772547,18.7383439 48.6777213,18.5719004 C49.1738307,18.4667384 49.2069286,18.7285086 49.2698867,19.0712308 L49.2698867,19.0712308 Z M35.881049,18.6343167 C35.8695366,18.6362081 35.5835272,18.8219439 35.5835272,18.8219439 C35.813414,19.3757467 35.9896965,19.1408345 36.5915755,19.0716091 C36.4800498,18.8366969 36.3095234,18.5098624 35.881049,18.6343167 L35.881049,18.6343167 Z M40.0283652,18.6343167 C39.9805171,18.6736579 39.988072,18.8098389 39.9682852,18.8839819 C39.1145741,18.9834697 39.1221291,19.1907675 39.4351205,19.5690481 C39.6441412,19.820983 39.6376656,19.9753215 40.0866464,20.005584 C40.7709104,20.0517342 40.3366797,19.0326462 40.2650874,18.6343167 C40.2247943,18.6343167 40.0567862,18.6600398 40.0283652,18.6343167 L40.0283652,18.6343167 Z M44.6494857,18.6343167 C44.2307247,19.6552961 44.6696323,20.7965687 45.4787331,19.5070101 C45.9403055,18.7686063 45.4564279,19.1147331 44.6494857,18.6343167 L44.6494857,18.6343167 Z M38.0129882,19.0712308 C37.5884711,19.4945269 38.25043,20.5798139 38.25043,19.1945503 L38.0129882,19.0712308 L38.0129882,19.0712308 Z M41.2130557,19.2577232 C40.2629289,19.5595911 41.7462204,20.5658176 41.7462204,20.5658176 C41.7462204,20.5658176 41.9782658,20.6248293 41.9836622,20.6289904 C42.0311505,20.4515768 42.1934024,20.0233632 42.0419433,19.9431677 C42.4977596,19.5036056 42.2678728,18.9210534 41.2130557,19.2577232 L41.2130557,19.2577232 Z M42.7524699,19.2577232 C42.5884192,19.3031169 42.8251414,20.6698447 43.1683527,20.6286121 C43.2162008,20.6206683 43.1989323,20.4553596 43.2277132,20.440985 C43.5997053,20.2484401 43.6892856,20.3785687 43.879239,20.1292817 C44.2519506,19.632221 43.6784928,18.993305 42.7524699,19.2577232 L42.7524699,19.2577232 Z M35.9994101,19.5066318 C35.3831408,19.5637522 35.9825013,20.4122356 36.4131344,20.3169089 C36.7081378,20.2507098 36.6498566,19.4445938 35.9994101,19.5066318 L35.9994101,19.5066318 Z M41.449778,21.8746685 C41.3238619,21.7982558 41.2436353,21.5043318 41.154055,21.4385109 C41.7098846,21.5898232 41.6098713,21.5485906 41.449778,21.8746685 L41.449778,21.8746685 Z M39.7308435,22.1856152 C39.5837015,22.813561 39.0591711,22.4704605 38.9620358,21.5629653 C39.6887515,21.8024169 39.8279787,21.7732893 39.7308435,22.1856152 L39.7308435,22.1856152 Z M45.7150956,21.562587 C45.0398256,21.5644784 45.0578136,22.0902885 45.300292,22.4973184 C45.8992928,22.3622722 46.3730971,21.5588042 45.7150956,21.562587 L45.7150956,21.562587 Z M40.205727,21.7490793 C40.1067929,22.1712405 40.3449542,22.6546831 41.0356939,22.3096912 C41.3141483,22.167836 40.9104973,21.9321672 40.9173328,21.9355717 C40.5244746,21.9185491 40.4021561,21.8103608 40.205727,21.7490793 L40.205727,21.7490793 Z M44.4714044,21.7490793 C43.7385727,21.8024169 43.6310044,22.588484 44.7077668,22.3728641 C44.8570674,22.3418451 45.0801187,21.7029291 44.4714044,21.7490793 L44.4714044,21.7490793 Z M42.1020233,22.1856152 C42.1020233,22.1856152 42.0459007,22.316122 42.0419433,22.3732424 C42.0181992,22.610046 42.554242,22.8116696 42.8129096,22.684189 C43.3896053,22.3993437 42.4265271,22.1856152 42.1020233,22.1856152 L42.1020233,22.1856152 Z" id="Shape"></path>
                        <path d="M14.1605235,36.2557628 C13.7978851,36.2557628 13.4410029,36.2988868 13.0959929,36.3401194 C12.7495437,36.3821085 12.117445,36.4214497 11.7817886,36.4214497 C11.3353262,36.4214497 10.4557123,36.385513 10.0114084,36.3510895 C9.56098858,36.314018 9.09294049,36.2769465 8.62813023,36.2769465 C8.11403283,36.2769465 7.7675837,36.5549827 7.7675837,36.9688217 C7.7675837,37.4280544 8.17986895,37.4893359 8.45076843,37.5305685 C8.99616498,37.6126554 9.81461956,37.395144 9.81461956,39.2884385 C9.81461956,39.4601779 9.8088634,39.631539 9.80310723,39.7968476 C9.79735107,39.940216 9.79375347,40.0767753 9.79375347,40.1951771 C9.79375347,40.7096388 9.79375347,41.1961077 9.51134166,41.5569874 C9.06883655,42.1187341 8.48710421,42.4697785 7.80391949,42.4697785 C7.00273339,42.4697785 6.27961528,42.0627486 5.70255983,41.4559864 C4.54557084,40.239436 4.47325903,37.9368418 4.47325903,36.1944813 C4.47325903,34.6579054 4.48477136,32.6087593 5.63708346,31.3982614 C6.28357264,30.7184911 7.05238031,30.3485326 8.01401948,30.3485326 C10.2240267,30.3485326 11.3569118,32.5588263 12.1059326,33.7262003 C12.5196569,34.3688991 12.6265057,34.7940865 12.9927417,34.7940865 C13.1539143,34.7940865 13.3017757,34.7309136 13.4115026,34.6166729 C13.5194307,34.5031887 13.5784314,34.3507416 13.5784314,34.1842981 C13.5784314,34.0689225 13.5536079,33.9558166 13.5327418,33.8533026 C13.5244673,33.8150962 13.5165526,33.778403 13.5100769,33.7470057 C13.3384713,32.7400227 13.3240809,31.4621908 13.3240809,30.5758793 C13.3240809,30.3901435 13.3039343,30.1586358 13.1456398,29.9929489 C13.038791,29.8787081 13.0521021,29.8215877 12.8614292,29.8215877 L12.8272519,29.8215877 L12.7937942,29.8306665 C12.6002432,29.8896782 12.4876383,30.0311552 12.398058,30.1435045 C12.3081179,30.2588801 12.2739407,30.5388078 12.21494,30.5414558 C12.1616955,30.5263245 12.0012424,30.451425 11.8580578,30.3829562 C11.1410556,30.0402339 9.64805056,29.2015858 7.61180751,29.2015858 C3.34397159,29.2019641 0,32.1215339 0,36.2557628 C0,38.3007478 0.698294658,40.1611319 1.96680932,41.4941928 C3.30295892,42.899127 5.22515797,43.6727109 7.37868286,43.6727109 C8.93536549,43.6727109 11.2263188,43.4048882 13.3017757,42.1323522 C13.5582848,41.9659087 13.7730617,41.7461277 13.7730617,41.4544733 C13.7730617,41.0512262 13.7626286,40.6370089 13.7518358,40.2356532 C13.742482,39.8305146 13.7298904,39.4113797 13.7298904,38.9990538 C13.7298904,38.9067534 13.7259331,38.8125615 13.7201769,38.7130737 C13.7155,38.6007243 13.7097439,38.4853487 13.7097439,38.3601379 C13.7097439,37.4064924 14.2162863,37.5578047 14.4404169,37.512411 C14.644401,37.4685304 15.02107,37.3872001 15.02107,36.9688217 C15.02107,36.7932995 14.9591912,36.6359348 14.8426289,36.5137502 C14.6231751,36.280351 14.2929152,36.2557628 14.1605235,36.2557628" id="Shape"></path>
                        <path d="M23.3228977,29.2901035 C18.7942356,29.2901035 15.5092647,32.3742254 15.5092647,36.6234515 C15.5092647,38.5481433 16.26656,40.3854523 17.5886789,41.6632842 C19.0385128,43.0432519 20.8204053,43.6572014 23.3649896,43.6572014 C25.5454965,43.6572014 27.4360367,42.8987487 28.8322662,41.4639303 C30.2241787,40.0355427 30.9901083,38.0537306 30.9901083,35.8823998 C30.9901083,34.2266655 30.3957843,32.7400227 29.269375,31.585132 C27.8501207,30.1264819 25.6807664,29.2901035 23.3228977,29.2901035 M23.7520917,42.4970147 C20.7646425,42.4970147 19.9699321,38.6007243 19.7623504,36.2788379 C19.7249353,35.8566767 19.6860812,35.4201409 19.6860812,34.9779308 C19.6860812,33.845737 19.9846823,32.2910036 20.8240029,31.3203355 C21.3237099,30.7408096 21.9514916,30.4457508 22.6879208,30.4457508 C23.6017119,30.4457508 24.3856295,30.8179789 25.0198868,31.5518433 C26.3132249,33.0502128 26.7740778,35.7711853 26.7740778,37.8199531 C26.7740778,38.9173452 26.5564229,42.4970147 23.7520917,42.4970147" id="Shape"></path>
                        <path d="M42.3959474,38.4993451 C42.0476995,38.4993451 41.8340019,38.837528 41.7052077,39.0399081 L41.6746281,39.0879498 C40.8525759,40.4516514 39.5743477,42.1667757 38.0874586,42.1667757 C37.5960261,42.1667757 36.7901631,41.8823087 36.6099232,41.6935467 C36.442275,41.5199159 36.3638472,41.0406343 36.3638472,40.6082596 L36.3638472,32.1514181 L36.3638472,31.7606542 C36.3638472,31.2711591 36.5843803,30.785825 36.8178647,30.5429689 C36.9304696,30.4264584 37.0909227,30.3685815 37.3100167,30.3685815 L37.3226083,30.3685815 L37.3348401,30.367825 C37.78526,30.3197833 37.9446338,30.0440167 37.9446338,29.8007823 C37.9446338,29.6252601 37.8834745,29.4667605 37.7651134,29.3445759 C37.5427816,29.1126899 37.2071253,29.0877233 37.0747335,29.0877233 C36.6228746,29.0877233 36.1695767,29.1410609 35.7328277,29.1921288 C35.3014752,29.2424401 34.4545995,29.2946428 34.0160518,29.2946428 C33.5904554,29.2946428 33.1501088,29.2424401 32.7255917,29.1932636 C32.2856049,29.1421957 31.7153849,29.0881016 31.2613675,29.0881016 C30.7479896,29.0881016 30.3896684,29.3808908 30.3896684,29.8011606 C30.3896684,30.2513145 30.8303747,30.3137308 31.1221403,30.3538286 C31.5761577,30.4170014 32.121914,30.477148 32.2248055,31.1803717 C32.2956782,31.5363338 32.3298555,31.8684642 32.3298555,32.1521746 L32.3298555,40.3200097 L32.3298555,40.5677835 C32.3298555,41.5395865 32.2021406,42.1020897 31.5506147,42.1020897 L31.5362243,42.1020897 L31.5211144,42.1043594 C31.1606346,42.1474834 30.936504,42.3661296 30.936504,42.6717804 C30.936504,42.8473026 30.9983827,43.0039107 31.1167439,43.1272302 C31.3397952,43.358738 31.6736528,43.3840828 31.8071238,43.3840828 C32.2784097,43.3840828 32.7514945,43.3360411 33.2091095,43.2906474 C33.663127,43.245632 34.1326141,43.198347 34.5952658,43.198347 C35.4317084,43.198347 36.2825414,43.2713551 37.1049533,43.3417153 C37.9374386,43.4139669 38.7987046,43.4873534 39.6574524,43.4873534 C40.5863533,43.4873534 41.5192117,43.1994818 42.1326029,42.5624573 C42.7632627,41.9076535 43.0417171,40.1414613 42.9471002,39.1303172 C42.9291121,38.9468511 42.8830628,38.7732203 42.7708176,38.6570881 C42.6704445,38.5541958 42.5409308,38.4993451 42.3959474,38.4993451" id="Shape"></path>
                        <path d="M54.7544318,30.1960855 C53.113925,29.1739713 51.043145,29.0877233 49.2306728,29.0877233 C48.7057826,29.0877233 48.16938,29.2431967 47.6520448,29.2742157 C47.1386669,29.3033433 46.634283,29.3604637 46.1209051,29.3604637 C45.6640096,29.3604637 45.1653819,29.1800238 44.7074071,29.1497614 C44.2389992,29.1194989 43.756201,29.0873451 43.2823967,29.0873451 C42.6492187,29.0873451 42.4218502,29.4342284 42.4218502,29.7595497 C42.4218502,30.2830901 42.9560942,30.3250792 43.1841822,30.3428584 L43.2406645,30.3470195 C44.0986927,30.3780385 44.264902,31.0161979 44.264902,32.1101855 L44.264902,40.3604858 L44.264902,40.7115302 C44.264902,41.9371594 43.8044088,42.0555612 43.3985993,42.1626146 C43.1697917,42.2216264 42.8255012,42.3120355 42.8255012,42.7122564 C42.8255012,42.8877786 42.8837823,43.0421171 42.9963873,43.1605189 C43.1881395,43.3621425 43.477027,43.4045099 43.6853282,43.4045099 C44.0882597,43.4045099 44.49299,43.3613859 44.8847689,43.3201533 C45.2639562,43.2808121 45.6557351,43.2392013 46.0352822,43.2392013 C46.5673676,43.2392013 47.1127642,43.2702203 47.6405325,43.3001045 C48.1744167,43.3311235 48.7273682,43.3632773 49.2734843,43.3632773 C51.3910331,43.3632773 53.1481022,42.8605424 54.4950446,41.8717168 C56.3348586,40.5106632 57.4785364,38.1857505 57.4785364,35.801826 C57.4788962,33.355107 56.4600551,31.2590541 54.7544318,30.1960855 M49.7152699,42.2639938 C49.1551231,42.2639938 48.7575881,42.1285694 48.5032376,41.8509114 C48.2359357,41.5600136 48.1060622,41.088676 48.1060622,40.4085274 L48.1060622,31.9191538 L48.1060622,31.7546017 C48.1060622,31.3865347 48.1366419,31.1380043 48.2891802,30.9541599 C48.526622,30.6825544 48.9381877,30.6451046 49.3454363,30.6451046 C52.6152973,30.8346232 53.4819597,34.8757951 53.4819597,36.9835747 C53.4819597,39.1061072 52.4789481,42.2639938 49.7152699,42.2639938" id="Shape"></path>
                        <path d="M69.3214843,38.7671678 C69.0973537,38.7671678 68.8789792,38.9094013 68.7645754,39.1291824 L68.7865208,39.0955154 C67.740338,40.5477347 66.8085589,42.1020897 64.4762332,42.1020897 C64.1693577,42.1020897 63.5757533,41.8304843 63.4322089,41.6787937 C63.2638411,41.5032715 63.1821755,41.0300425 63.1821755,40.5878324 L63.1821755,37.2680417 C63.1821755,37.0353991 63.2213894,36.8768996 63.2987379,36.7955692 C63.3768058,36.7142389 63.5160331,36.6809502 63.7833349,36.6809502 C66.0527026,36.6809502 65.9652809,37.3940092 66.1401244,37.9156581 C66.2394182,38.2114736 66.364255,38.5776492 66.8412971,38.5776492 L66.8546082,38.5776492 L66.8697182,38.5753795 C67.4474931,38.5061542 67.4474931,37.9345722 67.4474931,37.7208436 C67.4474931,37.280525 67.4248282,36.8322624 67.4046817,36.3968614 C67.3838156,35.9697826 67.3629495,35.5271943 67.3629495,35.1012503 C67.3629495,34.8326711 67.3629495,34.5546348 67.3820168,34.2966475 C67.3841753,34.0602221 67.3841753,33.7341442 67.1827096,33.5226853 C67.1111173,33.4462726 66.9823231,33.3569984 66.7772598,33.3569984 C66.3567,33.3569984 66.2261071,33.7840772 66.1620697,33.9898619 C65.8605907,35.0237028 65.1281188,35.1099508 63.9729286,35.1099508 L63.5714361,35.1099508 C63.3415493,35.1099508 63.2649204,35.065692 63.2411762,35.0407254 C63.2023221,34.9994928 63.1821755,34.8943308 63.1821755,34.7286439 L63.1821755,31.4289021 C63.1821755,31.378969 63.1771389,31.3275229 63.1721023,31.2775898 C63.1670656,31.2272785 63.1616692,31.1743192 63.1616692,31.1202251 C63.1616692,31.0237635 63.1818158,30.9617255 63.2300237,30.9106576 C63.3124088,30.8232748 63.5638812,30.6787716 64.3125423,30.6787716 L64.3711832,30.6787716 C65.9372196,30.6787716 66.9236822,31.1754541 67.4205111,32.5951412 C67.417633,32.5841711 67.4320235,32.6284299 67.4320235,32.6284299 C67.4917437,32.8330797 67.6198183,33.2590237 68.0745553,33.2590237 L68.0918238,33.2590237 L68.108013,33.2559975 C68.466694,33.206821 68.6811111,32.8716644 68.6811111,32.360229 C68.6811111,31.9740045 68.6253482,31.1977726 68.5685061,30.8278142 C68.5256946,30.5528042 68.48756,30.2921688 68.469572,30.0296421 C68.4544621,29.8041868 68.4084128,29.121012 67.7482527,29.0877233 C67.3453212,29.0877233 66.9517435,29.1247948 66.5707574,29.1611098 C66.2635221,29.1913722 65.944055,29.2231478 65.6339417,29.23147 C65.6328624,29.23147 64.8449874,29.2632455 64.8449874,29.2632455 C64.0006301,29.2984256 63.3868791,29.3343623 62.5338876,29.3343623 C61.8273184,29.3343623 61.1013222,29.269298 60.3983507,29.2061252 C59.7137269,29.1448437 59.0657987,29.0877233 58.4484501,29.0877233 C57.9339929,29.0877233 57.5889828,29.3646247 57.5889828,29.7799769 C57.5889828,30.2834684 58.0527138,30.3265924 58.3304487,30.3515589 C58.7438133,30.3897652 59.0276641,30.4427245 59.200349,30.8198703 C59.3845463,31.1962595 59.4079307,31.67138 59.4079307,32.1306126 L59.4079307,40.3396803 L59.4079307,40.6895899 C59.4079307,41.8879829 58.955712,42.0173549 58.5592562,42.1319739 C58.3322475,42.1962816 57.990835,42.2946346 57.990835,42.6895595 C57.990835,42.8658383 58.050915,43.0216899 58.1631602,43.1389569 C58.3541929,43.3405805 58.6430804,43.3825696 58.8510218,43.3825696 C59.3280639,43.3825696 59.8076243,43.334528 60.2713553,43.2883778 C60.7242935,43.2433624 61.1909025,43.1972121 61.6445602,43.1972121 C62.4810028,43.1972121 63.3203235,43.2694637 64.1301438,43.3386891 C64.8967929,43.4037533 65.619911,43.4661696 66.3016567,43.4661696 C67.3330894,43.4661696 68.3058811,43.4661696 69.0156881,42.4981495 C69.5984997,41.7408317 69.8632833,40.2103084 69.8632833,39.3338322 C69.8632833,39.1704149 69.8118376,39.028938 69.713623,38.923776 C69.6139694,38.8208837 69.4786996,38.7671678 69.3214843,38.7671678" id="Shape"></path>
                        <path d="M85.0966118,29.3313361 C84.9059389,29.1297125 84.6170514,29.0873451 84.4080307,29.0873451 C84.1572778,29.0873451 83.9158787,29.1255514 83.6831138,29.1626229 C83.4582636,29.1985596 83.2463648,29.2318483 83.0315879,29.2318483 C82.7729203,29.2318483 82.5171308,29.1989378 82.2483899,29.1614881 C81.9753318,29.1251731 81.69292,29.0873451 81.4022337,29.0873451 C80.8866973,29.0873451 80.5416872,29.365003 80.5416872,29.7792203 C80.5416872,30.2206738 80.9431797,30.2830901 81.2349452,30.3281055 C81.7738661,30.4113272 82.446258,30.5145978 82.446258,32.1302344 L82.446258,37.3285666 L75.3147304,29.577975 C75.3050169,29.5692746 75.2694006,29.534851 75.2694006,29.534851 C75.0557031,29.3252836 74.8125051,29.0873451 74.3966223,29.0873451 C74.1667355,29.1002066 73.9462024,29.1194989 73.7328646,29.1365215 C73.291079,29.173593 72.8334639,29.2117994 72.3852027,29.2117994 C72.0786869,29.2117994 71.7563417,29.1800238 71.4444296,29.1497614 C71.1213649,29.1194989 70.7875074,29.0873451 70.4597658,29.0873451 C69.9442293,29.0873451 69.5992192,29.365003 69.5992192,29.7792203 C69.5992192,30.2917905 70.1406584,30.3258358 70.3716245,30.3398322 C70.4040029,30.3428584 70.432424,30.3447498 70.4572475,30.3470195 C71.3375808,30.3481544 71.571425,30.9458377 71.8095863,31.7920515 C71.8488001,31.9074271 71.8851359,32.0258289 71.8851359,32.1302344 L71.8851359,40.3404369 C71.8851359,41.3292624 71.8232571,42.0385386 71.0209918,42.145592 L71.0515714,42.1425658 C70.7004454,42.1425658 70.4460949,42.3733169 70.4460949,42.6903161 C70.4460949,42.8711342 70.5068944,43.0300121 70.6230969,43.1537099 C70.8321176,43.3712212 71.1404322,43.4045099 71.3052024,43.4045099 C71.614956,43.4045099 71.9189534,43.3663036 72.2128775,43.3303669 C72.5046431,43.294052 72.7802194,43.2600067 73.0626312,43.2600067 C73.3223781,43.2600067 73.5824848,43.294052 73.8573416,43.3303669 C74.1336375,43.3663036 74.4214457,43.4045099 74.7139308,43.4045099 C74.8452433,43.4045099 75.1744239,43.3784085 75.394957,43.1476574 C75.5111595,43.0250944 75.5733981,42.8665949 75.5733981,42.6903161 C75.5733981,42.549974 75.5255499,42.4243848 75.4348904,42.3283015 C75.2384613,42.1228952 74.9092806,42.1228952 74.6919854,42.1228952 C73.8505062,42.0945241 73.520606,41.5944371 73.520606,40.3408152 L73.520606,33.4614038 L82.6448457,43.1416049 C82.8168111,43.3330149 83.0826739,43.6311 83.454666,43.6311 C83.6043263,43.6311 83.736718,43.575871 83.8363716,43.4695742 C83.9716415,43.3280972 84.0403557,43.1075596 84.0403557,42.8147704 L84.0403557,32.1306126 L84.0403557,31.7807031 C84.0403557,30.958321 84.1500826,30.429863 84.6965584,30.3455064 C85.0502027,30.3084349 85.2678577,30.0965977 85.2678577,29.7795986 C85.2685772,29.6040764 85.2084973,29.448603 85.0966118,29.3313361" id="Shape"></path>
                        <path d="M44.5228501,51.9192284 C44.1584129,51.9192284 43.80261,51.9623523 43.4565207,52.0035849 C43.1115106,52.0459524 42.4779728,52.0852935 42.1441153,52.0852935 C41.6976528,52.0852935 40.8173194,52.0486003 40.3748143,52.0137985 C39.9225957,51.976727 39.4541878,51.9400338 38.9908166,51.9400338 C38.4756399,51.9400338 38.1295506,52.2184483 38.1295506,52.6330439 C38.1295506,53.0911417 38.5407565,53.153558 38.811656,53.1944123 C39.3584916,53.2768775 40.1765864,53.057853 40.1765864,54.9526606 C40.1765864,55.1240218 40.1708303,55.2950046 40.1643546,55.4599349 C40.1603972,55.6033033 40.1550008,55.7398626 40.1550008,55.859021 C40.1550008,56.3734826 40.1550008,56.859195 39.872589,57.2212095 C39.4308034,57.7818214 38.8501503,58.1328658 38.1651668,58.1328658 C37.3639807,58.1328658 36.6419419,57.7258358 36.0648864,57.1186955 C34.9068182,55.9032798 34.8355856,53.6006857 34.8355856,51.8575686 C34.8355856,50.3206145 34.847098,48.2729815 36.0001296,47.0602138 C36.6466188,46.3800653 37.4147069,46.0119982 38.3759863,46.0119982 C40.5859936,46.0119982 41.7181591,48.2219136 42.4689788,49.3900441 C42.881264,50.0327429 42.9888323,50.4583086 43.3550683,50.4583086 C43.5162409,50.4583086 43.6648219,50.3940009 43.7738292,50.2786253 C43.880678,50.1658977 43.9396787,50.012694 43.9396787,49.8473854 C43.9396787,49.7323881 43.9159345,49.6185256 43.8939891,49.5182813 C43.8864342,49.4789401 43.8788792,49.4418686 43.8731231,49.4089582 C43.7007979,48.4042448 43.6860477,47.1248998 43.6860477,46.2385883 C43.6860477,46.0551222 43.6666207,45.8209665 43.5083262,45.6560362 C43.4014774,45.5421737 43.4129897,45.484675 43.223396,45.484675 L43.1877798,45.484675 L43.1554013,45.494132 C42.960771,45.5523873 42.8492454,45.6938642 42.7603846,45.808105 C42.6690055,45.9223457 42.6362673,46.2011385 42.5754678,46.204543 C42.5218635,46.1905467 42.3628495,46.1145123 42.2207442,46.0471783 C41.5012237,45.7029429 40.0096577,44.8654297 37.9730548,44.8654297 C33.7048592,44.8654297 30.3616071,47.7831081 30.3616071,51.9199849 C30.3616071,53.9627003 31.0599018,55.8230843 32.3273371,57.1572801 C33.664566,58.5614577 35.5856858,59.3346633 37.74029,59.3346633 C39.2980519,59.3346633 41.5890052,59.0679755 43.6644621,57.7946829 C43.9195321,57.628996 44.134309,57.4084584 44.134309,57.1164258 C44.134309,56.7143135 44.123876,56.2993396 44.1138027,55.8987405 C44.1033696,55.4924671 44.0918573,55.0729539 44.0918573,54.6621411 C44.0918573,54.5698406 44.0878999,54.4745139 44.0825035,54.3742696 C44.0774669,54.2638116 44.0720705,54.1480578 44.0720705,54.0232252 C44.0720705,53.0692014 44.5804117,53.2197571 44.8027436,53.1754983 C45.0078069,53.1304829 45.3833966,53.0491526 45.3833966,52.631909 C45.3823173,52.4560085 45.3222374,52.2986438 45.204236,52.1764592 C44.9844225,51.9434383 44.6545223,51.9192284 44.5228501,51.9192284" id="Shape"></path>
                        <path d="M60.1073046,51.9192284 C59.7446663,51.9192284 59.3881439,51.9623523 59.0416948,52.0035849 C58.6966847,52.0459524 58.0631469,52.0852935 57.7285698,52.0852935 C57.2824671,52.0852935 56.401774,52.0486003 55.9592689,52.0137985 C55.5070502,51.976727 55.0397217,51.9400338 54.5741919,51.9400338 C54.060814,51.9400338 53.7136453,52.2184483 53.7136453,52.6330439 C53.7136453,53.0911417 54.1248513,53.153558 54.3971898,53.1944123 C54.9433059,53.2768775 55.7614007,53.057853 55.7614007,54.9526606 C55.7614007,55.1240218 55.7538458,55.2950046 55.7480896,55.4599349 C55.7441322,55.6033033 55.7387358,55.7398626 55.7387358,55.859021 C55.7387358,56.3734826 55.7387358,56.859195 55.4574033,57.2212095 C55.0148982,57.7818214 54.4338854,58.1328658 53.7510604,58.1328658 C52.9491548,58.1328658 52.2260367,57.7258358 51.6497008,57.1186955 C50.4916325,55.9032798 50.4193207,53.6006857 50.4193207,51.8575686 C50.4193207,50.3206145 50.4315525,48.2729815 51.5835049,47.0602138 C52.2303538,46.3800653 52.9995212,46.0119982 53.9597214,46.0119982 C56.1708079,46.0119982 57.3026137,48.2219136 58.052354,49.3900441 C58.4653588,50.0327429 58.5732869,50.4583086 58.9406021,50.4583086 C59.1006954,50.4583086 59.2485569,50.3940009 59.3572045,50.2786253 C59.4658521,50.1658977 59.524493,50.012694 59.524493,49.8473854 C59.524493,49.7323881 59.5007488,49.6185256 59.4784437,49.5182813 C59.4708887,49.4789401 59.4633338,49.4418686 59.4561386,49.4089582 C59.2845329,48.4042448 59.2701425,47.1248998 59.2701425,46.2385883 C59.2701425,46.0551222 59.2499959,45.8209665 59.0927807,45.6560362 C58.9841331,45.5421737 58.996365,45.484675 58.8064115,45.484675 L58.7733136,45.484675 L58.7398559,45.494132 C58.5452256,45.5523873 58.4326206,45.6938642 58.3437599,45.808105 C58.2531003,45.9223457 58.2196426,46.2011385 58.1595626,46.204543 C58.1055986,46.1905467 57.9455052,46.1145123 57.8030402,46.0471783 C57.0863978,45.7029429 55.5937525,44.8654297 53.5564301,44.8654297 C49.2893137,44.8654297 45.9449824,47.7831081 45.9449824,51.9199849 C45.9449824,53.9627003 46.6439965,55.8230843 47.9125112,57.1572801 C49.2490206,58.5614577 51.1701403,59.3346633 53.325464,59.3346633 C54.8814271,59.3346633 57.1727402,59.0679755 59.2481971,57.7946829 C59.5036269,57.628996 59.7184038,57.4084584 59.7184038,57.1164258 C59.7184038,56.7143135 59.70905,56.2993396 59.6975377,55.8987405 C59.6871047,55.4924671 59.6759521,55.0729539 59.6759521,54.6621411 C59.6759521,54.5698406 59.6723545,54.4745139 59.6676776,54.3742696 C59.6601226,54.2638116 59.6543665,54.1480578 59.6543665,54.0232252 C59.6543665,53.0692014 60.1627077,53.2197571 60.3857591,53.1754983 C60.5908224,53.1304829 60.9678512,53.0491526 60.9678512,52.631909 C60.9678512,52.4560085 60.9059724,52.2986438 60.7883308,52.1764592 C60.5699563,51.9434383 60.2396964,51.9192284 60.1073046,51.9192284" id="Shape"></path>
                        <path d="M72.3146897,54.5902678 C72.090559,54.5902678 71.8729041,54.7317448 71.7585003,54.9534172 L71.7797262,54.9189937 C70.7342628,56.3715912 69.802124,57.9251897 67.4683592,57.9251897 C67.1629228,57.9251897 66.5689586,57.6539625 66.4264935,57.5026503 C66.257766,57.3259932 66.1761004,56.8527642 66.1761004,56.4113107 L66.1761004,53.0907634 C66.1761004,52.859634 66.2145947,52.7011344 66.2919432,52.6194258 C66.3685721,52.5373389 66.5095982,52.5032936 66.7758207,52.5032936 C69.0451884,52.5032936 68.9581265,53.2171092 69.1336895,53.7387581 C69.2329833,54.0334387 69.3578201,54.4018841 69.8337829,54.4018841 L69.8481733,54.4018841 L69.8625637,54.3996144 C70.4403387,54.3292542 70.4403387,53.7599418 70.4403387,53.5450785 C70.4403387,53.1040032 70.4183933,52.6553624 70.396448,52.2210963 C70.3773807,51.7940175 70.3554353,51.3506726 70.3554353,50.9243503 C70.3554353,50.6557711 70.3554353,50.3788697 70.3755819,50.1212606 C70.3766612,49.8833221 70.3766612,49.5576225 70.1762747,49.3469201 C70.1036031,49.2716423 69.9748089,49.1812332 69.7708249,49.1812332 C69.3502651,49.1812332 69.2175136,49.6086903 69.1556348,49.8133401 C68.8534362,50.8490725 68.1206046,50.9349422 66.9654144,50.9349422 L66.563922,50.9349422 C66.3340352,50.9349422 66.2588453,50.8906834 66.2340218,50.8642037 C66.1951677,50.8233494 66.1761004,50.7197005 66.1761004,50.5547702 L66.1761004,47.2538935 C66.1761004,47.2016908 66.1699845,47.1506229 66.1642283,47.102203 C66.1595514,47.0511351 66.154155,46.9993106 66.154155,46.9437034 C66.154155,46.8464853 66.1753809,46.7863386 66.2239485,46.7360273 C66.3063336,46.6482662 66.5567267,46.5026282 67.3053878,46.5026282 L67.3643885,46.5026282 C68.9297054,46.5026282 69.9158083,47.0000672 70.4140762,48.4193761 C70.4108384,48.4099191 70.4241495,48.453043 70.4241495,48.453043 C70.4845892,48.656558 70.6130236,49.0832586 71.0684801,49.0832586 L71.0853889,49.0832586 L71.1015781,49.0809889 C71.4591798,49.0306775 71.6750359,48.6955209 71.6750359,48.1844638 C71.6750359,47.7989959 71.6181938,47.0220075 71.5617114,46.6531839 C71.5196195,46.3762824 71.4807654,46.1160254 71.4627774,45.8538769 C71.448387,45.6291782 71.4016181,44.9460034 70.7425373,44.9119582 C70.3388863,44.9119582 69.9449488,44.9505428 69.5643225,44.9861012 C69.2567275,45.0163636 68.9372604,45.0470044 68.6278665,45.0557048 C68.6267873,45.0557048 67.8381928,45.0874804 67.8381928,45.0874804 C66.9949147,45.1226605 66.3797247,45.159732 65.5281722,45.159732 C64.8198042,45.159732 64.0945276,45.0935329 63.391556,45.0311166 C62.7065725,44.9690785 62.0600833,44.9119582 61.4420152,44.9119582 C60.9286373,44.9119582 60.5825479,45.1884813 60.5825479,45.6042117 C60.5825479,46.1073249 61.0477179,46.1504489 61.3236541,46.1757937 C61.7373784,46.2140001 62.0208694,46.269229 62.1942739,46.6441051 C62.3777516,47.0197378 62.4036543,47.4963714 62.4036543,47.9548475 L62.4036543,56.1639152 L62.4036543,56.5149596 C62.4036543,57.712596 61.9503564,57.841968 61.5517421,57.9573436 C61.3254529,58.0216513 60.9844001,58.1200043 60.9844001,58.5153075 C60.9844001,58.6908297 61.0444801,58.8447899 61.1567253,58.9647049 C61.3470385,59.1651936 61.6362857,59.2086959 61.8442271,59.2086959 C62.3219888,59.2086959 62.8022687,59.160276 63.2642009,59.114504 C63.7174988,59.0691103 64.1851871,59.0233384 64.6388448,59.0233384 C65.4742081,59.0233384 66.3138886,59.0944551 67.1244284,59.1633022 C67.8914373,59.2276099 68.6123969,59.2896479 69.2952218,59.2896479 C70.327374,59.2896479 71.2990865,59.2896479 72.0088934,58.3227627 C72.5917051,57.5665797 72.8579276,56.0341649 72.8579276,55.1588236 C72.8579276,54.9942715 72.8054026,54.8535511 72.7068283,54.7495239 C72.608254,54.6443619 72.4719049,54.5902678 72.3146897,54.5902678" id="Shape"></path>
                        <path d="M29.5877628,44.9611347 C29.3528393,44.9611347 29.1337453,44.9985844 28.9218465,45.0352777 C28.7214601,45.0704578 28.5315067,45.1037464 28.3350776,45.1037464 C28.0861235,45.1037464 27.8371694,45.0693229 27.5727456,45.0341428 C27.3058035,44.9982062 27.0291478,44.9611347 26.7496141,44.9611347 C26.2678951,44.9611347 25.9455499,45.2308487 25.9455499,45.6337176 C25.9455499,46.1493141 26.4013662,46.1633105 26.6758633,46.1727675 C27.0280686,46.1844942 27.3932252,46.1965992 27.6364232,46.6652888 C27.7745711,46.9524038 27.842206,47.3722953 27.842206,47.9491733 L27.842206,52.8611471 C27.842206,56.0897722 26.7614862,57.4682267 24.2255362,57.4682267 C23.1847497,57.4682267 22.3702525,57.1708982 21.8075875,56.5864546 C21.1553421,55.9097106 20.8232834,54.8471203 20.8232834,53.4300811 L20.8232834,47.9491733 L20.8232834,47.6855117 C20.8232834,46.6690716 20.9855353,46.2272399 21.3614848,46.2064345 C21.5902923,46.1848725 22.0756089,46.1398571 22.0756089,45.6340959 C22.0756089,45.4619782 22.0176875,45.3095311 21.9050825,45.1930207 C21.7104522,44.9925319 21.4233635,44.9615129 21.2715447,44.9615129 C20.8556618,44.9615129 20.4419375,45.008798 20.0411646,45.0538134 C19.651904,45.0988288 19.2525701,45.1438442 18.8640291,45.1438442 C18.4632561,45.1438442 18.055288,45.097694 17.6624298,45.0538134 C17.2627362,45.008798 16.8486521,44.9615129 16.4378059,44.9615129 C15.9560869,44.9615129 15.6326624,45.231227 15.6326624,45.6340959 C15.6326624,46.1379657 16.0733687,46.1648236 16.3097312,46.17882 C16.7579925,46.2079476 17.3141819,46.2431277 17.3141819,47.9491733 L17.3141819,53.653645 C17.3141819,55.3997883 17.76712,56.7547895 18.660045,57.6804422 C19.6709713,58.7294143 21.2093062,59.2400932 23.3642701,59.2400932 C25.340793,59.2400932 26.7809133,58.7434107 27.7662966,57.7216748 C28.7829791,56.6666501 29.2772897,55.083924 29.2772897,52.8827091 L29.2772897,47.9491733 L29.2772897,47.6650845 C29.2772897,47.0484871 29.3240585,46.2249702 29.7266302,46.1848725 C29.9363705,46.1629322 30.3925465,46.1156471 30.3925465,45.6340959 C30.3925465,45.4566823 30.3335458,45.3015872 30.2227396,45.1850768 C30.0446583,45.0000976 29.7784357,44.9611347 29.5877628,44.9611347" id="Shape"></path>
                        <path d="M84.9937204,46.7284617 C84.9491101,46.3320236 84.9059389,45.9582824 84.8829142,45.6715457 C84.8332673,45.0352777 84.4573178,44.968322 84.2983038,44.968322 C84.1454057,44.968322 83.9986235,44.9906405 83.8575975,45.011446 C83.7259252,45.0314948 83.6018079,45.0507872 83.4827273,45.0507872 C83.4809285,45.0507872 78.7407274,45.1116903 78.7407274,45.1116903 C77.8672295,45.1340089 76.9793411,45.1340089 76.1220325,45.1340089 C75.3284013,45.1340089 74.5081479,45.1340089 73.7494136,45.0129591 C73.5828446,44.989884 73.4177146,44.9687003 73.2479078,44.9687003 L73.2284807,44.9687003 L73.2112122,44.9717265 C72.8967818,45.0231727 72.7183407,45.2856994 72.6820049,45.7547674 C72.6643766,46.1292652 72.615809,46.518516 72.5701194,46.8952835 C72.5089602,47.3787261 72.4481607,48.2726032 72.4481607,48.7462105 C72.4481607,48.9047101 72.5082407,49.06094 72.6140102,49.1710197 C72.7064686,49.2708857 72.8287871,49.326493 72.9554227,49.326493 C73.3892935,49.326493 73.5763689,48.8865526 73.7591271,48.4632566 C74.0275082,47.834176 74.3336642,46.7269486 75.3827251,46.7269486 L76.4512131,46.7269486 C76.6897341,46.7269486 76.8311199,46.7541848 76.8840047,46.8105486 C76.930054,46.8597251 76.9527189,46.9762355 76.9527189,47.1562971 L76.9527189,56.1816944 L76.9527189,56.2842084 C76.9527189,57.3271281 76.8372358,57.9024929 76.2317593,57.9720965 C76.0274155,57.9932802 75.5352635,58.0443481 75.5352635,58.530817 C75.5352635,58.7097437 75.5964227,58.8697564 75.711546,58.9911845 C75.9184081,59.2109656 76.2159299,59.234419 76.3335715,59.234419 C76.7908268,59.234419 77.2513199,59.1920515 77.6956238,59.1508189 C78.1287752,59.1107212 78.577756,59.0694886 79.0145049,59.0694886 C79.4303878,59.0694886 79.8552646,59.1103429 80.2653913,59.1508189 C80.6848718,59.1916732 81.1209012,59.234419 81.5587294,59.234419 C81.8087628,59.234419 82.0433265,59.1440099 82.1875904,58.9911845 C82.2994758,58.8720261 82.3584765,58.7203356 82.3584765,58.5512442 C82.3584765,58.4006885 82.3095491,58.2682903 82.2160114,58.1688025 C82.0282166,57.97134 81.7231399,57.97134 81.5400219,57.97134 C80.7654581,57.9422124 80.4740523,57.4640657 80.4740523,56.2021215 L80.4740523,47.197908 C80.4740523,47.0333559 80.5085893,46.9168455 80.5762242,46.843459 C80.6794754,46.7352708 80.8798618,46.6849594 81.209762,46.6849594 C81.3676968,46.6849594 81.5367841,46.6959296 81.7008348,46.7053866 C81.8717209,46.7163567 82.0472839,46.7273269 82.219609,46.7273269 C83.3003289,46.7273269 83.6453389,47.9158846 83.9230739,48.5529091 C84.0946795,48.9508603 84.2576509,49.3268713 84.6066183,49.3268713 C84.7429675,49.3268713 84.8706824,49.2689943 84.9692567,49.1657237 C85.0764652,49.0518613 85.1343866,48.8956314 85.1343866,48.7261617 C85.1358257,48.3709561 85.0642334,47.3420329 84.9937204,46.7284617" id="Shape"></path>
                        <path d="M14.9980453,45.0995854 C14.8138481,44.9047708 14.5361132,44.8639165 14.3378853,44.8639165 C14.0957666,44.8639165 13.8648005,44.8998532 13.6417492,44.9361681 C13.4262528,44.9698351 13.2229882,45.0035021 13.0168456,45.0035021 C12.7678915,45.0035021 12.5236143,44.9698351 12.2663857,44.9350333 C12.0041205,44.8994749 11.7321417,44.8639165 11.4536873,44.8639165 C10.9597365,44.8639165 10.628757,45.1336306 10.628757,45.5357429 C10.628757,45.9639566 11.012981,46.0248598 11.293594,46.0679837 C11.8116487,46.1493141 12.4563391,46.2491802 12.4563391,47.8201796 L12.4563391,52.6213172 L6.08354594,45.3413067 C6.07383241,45.3322279 5.57124733,45.2981827 5.57124733,45.2981827 C5.36510471,45.095046 5.60290624,44.8642948 5.20321259,44.8642948 C4.98303931,44.8771564 4.77114052,44.894179 4.5667967,44.9123365 C4.14263935,44.9475166 3.23352519,44.9834532 2.8043312,44.9834532 C2.51040707,44.9834532 2.20137301,44.9543256 1.90205248,44.9244414 C1.59193914,44.894179 1.27175251,44.8642948 0.955883002,44.8642948 C0.463730971,44.8642948 0.130952733,45.1340089 0.130952733,45.5361212 C0.130952733,46.0331819 0.650806304,46.0672272 0.872058862,46.0812236 C0.903358004,46.0823584 0.932138825,46.0846281 0.955883002,46.0876543 C1.79808176,46.0876543 2.02437096,46.6702065 2.25317849,47.4910754 C2.29131307,47.6030465 2.32477078,47.7172872 2.32477078,47.8205578 L2.32477078,55.7958481 C2.32477078,56.7559243 2.26469082,57.4443951 1.49588315,57.5491788 L1.52466397,57.5469091 C1.18792837,57.5469091 0.943651153,57.7708512 0.943651153,58.0795282 C0.943651153,58.2539156 1.00193231,58.4097672 1.11453727,58.528169 C1.31492374,58.7407627 1.61028691,58.7725383 1.76894118,58.7725383 C2.06754219,58.7725383 2.35822848,58.7354668 2.639561,58.7002867 C2.91909472,58.6654849 3.18315875,58.6314396 3.45405822,58.6314396 C3.7040916,58.6314396 3.9530457,58.6654849 4.21639021,58.7002867 C4.48333232,58.7358451 4.75998795,58.7725383 5.03880215,58.7725383 C5.16471824,58.7725383 5.48130727,58.7479501 5.6928463,58.5228731 C5.80365246,58.4037147 5.86373242,58.2489979 5.86373242,58.0795282 C5.86373242,57.9410775 5.81804287,57.8196494 5.73134065,57.7277273 C5.54246651,57.5279951 5.22767629,57.5279951 5.01793606,57.5279951 C4.2109938,57.4988675 3.89440478,57.0146683 3.89440478,55.7958481 L3.89440478,49.1123862 L12.6466523,58.8629474 C12.810703,59.0483049 13.067212,59.3384461 13.4240942,59.3384461 C13.5679983,59.3384461 13.6939144,59.2851086 13.7903302,59.1818379 C13.9198438,59.0433872 13.98568,58.830037 13.98568,58.5448134 L13.98568,47.8201796 L13.98568,47.4793487 C13.98568,46.6792852 14.09073,46.166715 14.6152604,46.0853847 C14.9548741,46.0479349 15.1628155,45.8410154 15.1628155,45.5357429 C15.162096,45.3651384 15.1048941,45.2149609 14.9980453,45.0995854" id="Shape"></path>
                    </g>
                </g>
            </g>
        </g>
    </g>
</svg>